<?xml version="1.0" encoding="UTF-8" standalone="no"?>
<!DOCTYPE svg PUBLIC "-//W3C//DTD SVG 1.1//EN"
 "http://www.w3.org/Graphics/SVG/1.1/DTD/svg11.dtd">
<!-- Generated by graphviz version 2.28.0 (20110507.0327)
 -->
<!-- Title: G Pages: 1 -->
<svg width="840pt" height="1590pt"
 viewBox="0.00 0.00 840.00 1590.00" xmlns="http://www.w3.org/2000/svg" xmlns:xlink="http://www.w3.org/1999/xlink">
<g id="graph1" class="graph" transform="scale(1 1) rotate(0) translate(4 1586)">
<title>G</title>
<polygon fill="white" stroke="white" points="-4,5 -4,-1586 837,-1586 837,5 -4,5"/>
<g id="graph2" class="cluster"><title>cluster_global</title>
<polyline fill="none" stroke="gray" points="20,-98 812,-98 "/>
<path fill="none" stroke="gray" d="M812,-98C818,-98 824,-104 824,-110"/>
<polyline fill="none" stroke="gray" points="824,-110 824,-1562 "/>
<path fill="none" stroke="gray" d="M824,-1562C824,-1568 818,-1574 812,-1574"/>
<polyline fill="none" stroke="gray" points="812,-1574 20,-1574 "/>
<path fill="none" stroke="gray" d="M20,-1574C14,-1574 8,-1568 8,-1562"/>
<polyline fill="none" stroke="gray" points="8,-1562 8,-110 "/>
<path fill="none" stroke="gray" d="M8,-110C8,-104 14,-98 20,-98"/>
<text text-anchor="middle" x="416" y="-1561.2" font-family="Times New Roman,serif" font-size="11.00" fill="gray">global</text>
</g>
<!-- \\MiiCardServiceUrls -->
<g id="node2" class="node"><title>\\MiiCardServiceUrls</title>
<a xlink:href="miiCard.Consumers.miiCard.Consumers.html" xlink:title="MiiCardServiceUrls" target="_parent">
<polygon fill="none" stroke="black" points="775,-1546 637,-1546 637,-1510 775,-1510 775,-1546"/>
<text text-anchor="middle" x="706" y="-1525.2" font-family="Courier,monospace" font-size="11.00">MiiCardServiceUrls</text>
</a>
</g>
<!-- \\OAuthSignedRequestMaker -->
<g id="node3" class="node"><title>\\OAuthSignedRequestMaker</title>
<a xlink:href="miiCard.Consumers.miiCard.Consumers.html" xlink:title="«abstract»&lt;br/&gt;OAuthSignedRequestMaker" target="_parent">
<polygon fill="none" stroke="black" points="189.5,-1465 16.5,-1465 16.5,-1429 189.5,-1429 189.5,-1465"/>
<text text-anchor="start" x="69" y="-1450.7" font-family="Courier,monospace" font-size="11.00">«abstract»</text>
<text text-anchor="start" x="25" y="-1439.7" font-family="Courier,monospace" font-size="11.00">OAuthSignedRequestMaker</text>
</a>
</g>
<!-- \\MiiCardException -->
<g id="node4" class="node"><title>\\MiiCardException</title>
<a xlink:href="miiCard.Consumers.miiCard.Consumers.html" xlink:title="MiiCardException" target="_parent">
<polygon fill="none" stroke="black" points="768.5,-412 643.5,-412 643.5,-376 768.5,-376 768.5,-412"/>
<text text-anchor="middle" x="706" y="-391.2" font-family="Courier,monospace" font-size="11.00">MiiCardException</text>
</a>
</g>
<!-- \\Exception -->
<g id="node35" class="node"><title>\\Exception</title>
<ellipse fill="none" stroke="black" cx="393" cy="-72" rx="50.0912" ry="18"/>
<text text-anchor="middle" x="393" y="-68.3" font-family="Times New Roman,serif" font-size="14.00" fill="gray">\Exception</text>
</g>
<!-- \\MiiCardException&#45;&gt;\\Exception -->
<g id="edge3" class="edge"><title>\\MiiCardException&#45;&gt;\\Exception</title>
<path fill="none" stroke="black" d="M643.279,-390.325C626.065,-386.461 608.639,-379.45 596,-367 506.606,-278.941 616.64,-178.638 524,-94 504.84,-76.4948 477.152,-70.18 452.248,-68.577"/>
<polygon fill="none" stroke="black" points="452.277,-65.0754 442.143,-68.1658 451.992,-72.0696 452.277,-65.0754"/>
</g>
<!-- \\MiiCardOAuthServiceBase -->
<g id="node5" class="node"><title>\\MiiCardOAuthServiceBase</title>
<a xlink:href="miiCard.Consumers.miiCard.Consumers.html" xlink:title="«abstract»&lt;br/&gt;MiiCardOAuthServiceBase" target="_parent">
<polygon fill="none" stroke="black" points="479.5,-1492 306.5,-1492 306.5,-1456 479.5,-1456 479.5,-1492"/>
<text text-anchor="start" x="359" y="-1477.7" font-family="Courier,monospace" font-size="11.00">«abstract»</text>
<text text-anchor="start" x="315" y="-1466.7" font-family="Courier,monospace" font-size="11.00">MiiCardOAuthServiceBase</text>
</a>
</g>
<!-- \\MiiCardOAuthServiceBase&#45;&gt;\\OAuthSignedRequestMaker -->
<g id="edge5" class="edge"><title>\\MiiCardOAuthServiceBase&#45;&gt;\\OAuthSignedRequestMaker</title>
<path fill="none" stroke="black" d="M306.37,-1465.97C272.868,-1462.83 234.291,-1459.21 199.862,-1455.99"/>
<polygon fill="none" stroke="black" points="200.08,-1452.49 189.797,-1455.04 199.427,-1459.46 200.08,-1452.49"/>
</g>
<!-- \\MiiCardOAuthClaimsService -->
<g id="node6" class="node"><title>\\MiiCardOAuthClaimsService</title>
<a xlink:href="miiCard.Consumers.miiCard.Consumers.html" xlink:title="MiiCardOAuthClaimsService" target="_parent">
<polygon fill="none" stroke="black" points="798.5,-1492 613.5,-1492 613.5,-1456 798.5,-1456 798.5,-1492"/>
<text text-anchor="middle" x="706" y="-1471.2" font-family="Courier,monospace" font-size="11.00">MiiCardOAuthClaimsService</text>
</a>
</g>
<!-- \\MiiCardOAuthClaimsService&#45;&gt;\\MiiCardOAuthServiceBase -->
<g id="edge7" class="edge"><title>\\MiiCardOAuthClaimsService&#45;&gt;\\MiiCardOAuthServiceBase</title>
<path fill="none" stroke="black" d="M613.372,-1474C574.473,-1474 529.119,-1474 489.779,-1474"/>
<polygon fill="none" stroke="black" points="489.651,-1470.5 479.651,-1474 489.651,-1477.5 489.651,-1470.5"/>
</g>
<!-- \\MiiCard -->
<g id="node7" class="node"><title>\\MiiCard</title>
<a xlink:href="miiCard.Consumers.miiCard.Consumers.html" xlink:title="MiiCard" target="_parent">
<polygon fill="none" stroke="black" points="425,-1438 361,-1438 361,-1402 425,-1402 425,-1438"/>
<text text-anchor="middle" x="393" y="-1417.2" font-family="Courier,monospace" font-size="11.00">MiiCard</text>
</a>
</g>
<!-- \\MiiCard&#45;&gt;\\OAuthSignedRequestMaker -->
<g id="edge9" class="edge"><title>\\MiiCard&#45;&gt;\\OAuthSignedRequestMaker</title>
<path fill="none" stroke="black" d="M360.905,-1422.92C322.634,-1426.5 255.849,-1432.76 199.964,-1438"/>
<polygon fill="none" stroke="black" points="199.295,-1434.55 189.666,-1438.97 199.949,-1441.52 199.295,-1434.55"/>
</g>
<!-- \\MiiApiCallStatus -->
<g id="node8" class="node"><title>\\MiiApiCallStatus</title>
<a xlink:href="miiCard.Consumers.miiCard.Model.html" xlink:title="MiiApiCallStatus" target="_parent">
<polygon fill="none" stroke="black" points="768.5,-1384 643.5,-1384 643.5,-1348 768.5,-1348 768.5,-1384"/>
<text text-anchor="middle" x="706" y="-1363.2" font-family="Courier,monospace" font-size="11.00">MiiApiCallStatus</text>
</a>
</g>
<!-- \\MiiApiErrorCode -->
<g id="node9" class="node"><title>\\MiiApiErrorCode</title>
<a xlink:href="miiCard.Consumers.miiCard.Model.html" xlink:title="MiiApiErrorCode" target="_parent">
<polygon fill="none" stroke="black" points="765,-1330 647,-1330 647,-1294 765,-1294 765,-1330"/>
<text text-anchor="middle" x="706" y="-1309.2" font-family="Courier,monospace" font-size="11.00">MiiApiErrorCode</text>
</a>
</g>
<!-- \\WebPropertyType -->
<g id="node10" class="node"><title>\\WebPropertyType</title>
<a xlink:href="miiCard.Consumers.miiCard.Model.html" xlink:title="WebPropertyType" target="_parent">
<polygon fill="none" stroke="black" points="765,-1276 647,-1276 647,-1240 765,-1240 765,-1276"/>
<text text-anchor="middle" x="706" y="-1255.2" font-family="Courier,monospace" font-size="11.00">WebPropertyType</text>
</a>
</g>
<!-- \\Claim -->
<g id="node11" class="node"><title>\\Claim</title>
<a xlink:href="miiCard.Consumers.miiCard.Model.html" xlink:title="«abstract»&lt;br/&gt;Claim" target="_parent">
<polygon fill="none" stroke="black" points="435.5,-1168 350.5,-1168 350.5,-1132 435.5,-1132 435.5,-1168"/>
<text text-anchor="start" x="359" y="-1153.7" font-family="Courier,monospace" font-size="11.00">«abstract»</text>
<text text-anchor="start" x="376" y="-1142.7" font-family="Courier,monospace" font-size="11.00">Claim</text>
</a>
</g>
<!-- \\Identity -->
<g id="node12" class="node"><title>\\Identity</title>
<a xlink:href="miiCard.Consumers.miiCard.Model.html" xlink:title="Identity" target="_parent">
<polygon fill="none" stroke="black" points="741.5,-1168 670.5,-1168 670.5,-1132 741.5,-1132 741.5,-1168"/>
<text text-anchor="middle" x="706" y="-1147.2" font-family="Courier,monospace" font-size="11.00">Identity</text>
</a>
</g>
<!-- \\Identity&#45;&gt;\\Claim -->
<g id="edge11" class="edge"><title>\\Identity&#45;&gt;\\Claim</title>
<path fill="none" stroke="black" d="M670.23,-1150C615.652,-1150 509.549,-1150 445.909,-1150"/>
<polygon fill="none" stroke="black" points="445.692,-1146.5 435.692,-1150 445.692,-1153.5 445.692,-1146.5"/>
</g>
<!-- \\EmailAddress -->
<g id="node13" class="node"><title>\\EmailAddress</title>
<a xlink:href="miiCard.Consumers.miiCard.Model.html" xlink:title="EmailAddress" target="_parent">
<polygon fill="none" stroke="black" points="755,-1114 657,-1114 657,-1078 755,-1078 755,-1114"/>
<text text-anchor="middle" x="706" y="-1093.2" font-family="Courier,monospace" font-size="11.00">EmailAddress</text>
</a>
</g>
<!-- \\EmailAddress&#45;&gt;\\Claim -->
<g id="edge13" class="edge"><title>\\EmailAddress&#45;&gt;\\Claim</title>
<path fill="none" stroke="black" d="M656.747,-1104.38C599.61,-1114.3 504.807,-1130.76 446.057,-1140.96"/>
<polygon fill="none" stroke="black" points="445.134,-1137.57 435.88,-1142.73 446.332,-1144.47 445.134,-1137.57"/>
</g>
<!-- \\PhoneNumber -->
<g id="node14" class="node"><title>\\PhoneNumber</title>
<a xlink:href="miiCard.Consumers.miiCard.Model.html" xlink:title="PhoneNumber" target="_parent">
<polygon fill="none" stroke="black" points="751.5,-1060 660.5,-1060 660.5,-1024 751.5,-1024 751.5,-1060"/>
<text text-anchor="middle" x="706" y="-1039.2" font-family="Courier,monospace" font-size="11.00">PhoneNumber</text>
</a>
</g>
<!-- \\PhoneNumber&#45;&gt;\\Claim -->
<g id="edge15" class="edge"><title>\\PhoneNumber&#45;&gt;\\Claim</title>
<path fill="none" stroke="black" d="M660.325,-1051.59C640.451,-1056.24 616.873,-1062.27 596,-1069 543.069,-1086.08 484.223,-1110.3 443.764,-1127.8"/>
<polygon fill="none" stroke="black" points="442.175,-1124.67 434.4,-1131.87 444.967,-1131.09 442.175,-1124.67"/>
</g>
<!-- \\PostalAddress -->
<g id="node15" class="node"><title>\\PostalAddress</title>
<a xlink:href="miiCard.Consumers.miiCard.Model.html" xlink:title="PostalAddress" target="_parent">
<polygon fill="none" stroke="black" points="758,-1438 654,-1438 654,-1402 758,-1402 758,-1438"/>
<text text-anchor="middle" x="706" y="-1417.2" font-family="Courier,monospace" font-size="11.00">PostalAddress</text>
</a>
</g>
<!-- \\PostalAddress&#45;&gt;\\Claim -->
<g id="edge17" class="edge"><title>\\PostalAddress&#45;&gt;\\Claim</title>
<path fill="none" stroke="black" d="M653.795,-1414.19C634.592,-1410.31 613.26,-1403.82 596,-1393 506.519,-1336.89 437.383,-1227.75 408.597,-1177.07"/>
<polygon fill="none" stroke="black" points="411.634,-1175.33 403.696,-1168.31 405.526,-1178.75 411.634,-1175.33"/>
</g>
<!-- \\WebProperty -->
<g id="node16" class="node"><title>\\WebProperty</title>
<a xlink:href="miiCard.Consumers.miiCard.Model.html" xlink:title="WebProperty" target="_parent">
<polygon fill="none" stroke="black" points="751.5,-1222 660.5,-1222 660.5,-1186 751.5,-1186 751.5,-1222"/>
<text text-anchor="middle" x="706" y="-1201.2" font-family="Courier,monospace" font-size="11.00">WebProperty</text>
</a>
</g>
<!-- \\WebProperty&#45;&gt;\\Claim -->
<g id="edge19" class="edge"><title>\\WebProperty&#45;&gt;\\Claim</title>
<path fill="none" stroke="black" d="M660.441,-1196.26C603.76,-1186.42 506.042,-1169.45 446.011,-1159.03"/>
<polygon fill="none" stroke="black" points="446.437,-1155.55 435.986,-1157.29 445.24,-1162.45 446.437,-1155.55"/>
</g>
<!-- \\MiiUserProfile -->
<g id="node17" class="node"><title>\\MiiUserProfile</title>
<a xlink:href="miiCard.Consumers.miiCard.Model.html" xlink:title="MiiUserProfile" target="_parent">
<polygon fill="none" stroke="black" points="761.5,-952 650.5,-952 650.5,-916 761.5,-916 761.5,-952"/>
<text text-anchor="middle" x="706" y="-931.2" font-family="Courier,monospace" font-size="11.00">MiiUserProfile</text>
</a>
</g>
<!-- \\IdentitySnapshotDetails -->
<g id="node18" class="node"><title>\\IdentitySnapshotDetails</title>
<a xlink:href="miiCard.Consumers.miiCard.Model.html" xlink:title="IdentitySnapshotDetails" target="_parent">
<polygon fill="none" stroke="black" points="792,-898 620,-898 620,-862 792,-862 792,-898"/>
<text text-anchor="middle" x="706" y="-877.2" font-family="Courier,monospace" font-size="11.00">IdentitySnapshotDetails</text>
</a>
</g>
<!-- \\IdentitySnapshot -->
<g id="node19" class="node"><title>\\IdentitySnapshot</title>
<a xlink:href="miiCard.Consumers.miiCard.Model.html" xlink:title="IdentitySnapshot" target="_parent">
<polygon fill="none" stroke="black" points="768.5,-844 643.5,-844 643.5,-808 768.5,-808 768.5,-844"/>
<text text-anchor="middle" x="706" y="-823.2" font-family="Courier,monospace" font-size="11.00">IdentitySnapshot</text>
</a>
</g>
<!-- \\MiiApiResponse -->
<g id="node20" class="node"><title>\\MiiApiResponse</title>
<a xlink:href="miiCard.Consumers.miiCard.Model.html" xlink:title="MiiApiResponse" target="_parent">
<polygon fill="none" stroke="black" points="761.5,-790 650.5,-790 650.5,-754 761.5,-754 761.5,-790"/>
<text text-anchor="middle" x="706" y="-769.2" font-family="Courier,monospace" font-size="11.00">MiiApiResponse</text>
</a>
</g>
<!-- \\Util -->
<g id="node21" class="node"><title>\\Util</title>
<a xlink:href="miiCard.Consumers.miiCard.Model.html" xlink:title="Util" target="_parent">
<polygon fill="none" stroke="black" points="733,-736 679,-736 679,-700 733,-700 733,-736"/>
<text text-anchor="middle" x="706" y="-715.2" font-family="Courier,monospace" font-size="11.00">Util</text>
</a>
</g>
<!-- \\OAuthException -->
<g id="node22" class="node"><title>\\OAuthException</title>
<a xlink:href="miiCard.Consumers.oauth.OAuth.html" xlink:title="OAuthException" target="_parent">
<polygon fill="none" stroke="black" points="761.5,-466 650.5,-466 650.5,-430 761.5,-430 761.5,-466"/>
<text text-anchor="middle" x="706" y="-445.2" font-family="Courier,monospace" font-size="11.00">OAuthException</text>
</a>
</g>
<!-- \\OAuthException&#45;&gt;\\Exception -->
<g id="edge21" class="edge"><title>\\OAuthException&#45;&gt;\\Exception</title>
<path fill="none" stroke="black" d="M650.315,-446.107C630.791,-442.702 610.149,-435.523 596,-421 492.154,-314.408 631.778,-196.614 524,-94 505.058,-75.9657 477.128,-69.6471 452.007,-68.1788"/>
<polygon fill="none" stroke="black" points="451.928,-64.6741 441.814,-67.8301 451.689,-71.67 451.928,-64.6741"/>
</g>
<!-- \\OAuthConsumer -->
<g id="node23" class="node"><title>\\OAuthConsumer</title>
<a xlink:href="miiCard.Consumers.oauth.OAuth.html" xlink:title="OAuthConsumer" target="_parent">
<polygon fill="none" stroke="black" points="758,-628 654,-628 654,-592 758,-592 758,-628"/>
<text text-anchor="middle" x="706" y="-607.2" font-family="Courier,monospace" font-size="11.00">OAuthConsumer</text>
</a>
</g>
<!-- \\OAuthToken -->
<g id="node24" class="node"><title>\\OAuthToken</title>
<a xlink:href="miiCard.Consumers.oauth.OAuth.html" xlink:title="OAuthToken" target="_parent">
<polygon fill="none" stroke="black" points="748,-574 664,-574 664,-538 748,-538 748,-574"/>
<text text-anchor="middle" x="706" y="-553.2" font-family="Courier,monospace" font-size="11.00">OAuthToken</text>
</a>
</g>
<!-- \\OAuthSignatureMethod -->
<g id="node25" class="node"><title>\\OAuthSignatureMethod</title>
<a xlink:href="miiCard.Consumers.oauth.OAuth.html" xlink:title="«abstract»&lt;br/&gt;OAuthSignatureMethod" target="_parent">
<polygon fill="none" stroke="black" points="469.5,-682 316.5,-682 316.5,-646 469.5,-646 469.5,-682"/>
<text text-anchor="start" x="359" y="-667.7" font-family="Courier,monospace" font-size="11.00">«abstract»</text>
<text text-anchor="start" x="325" y="-656.7" font-family="Courier,monospace" font-size="11.00">OAuthSignatureMethod</text>
</a>
</g>
<!-- \\OAuthSignatureMethod_HMAC_SHA1 -->
<g id="node26" class="node"><title>\\OAuthSignatureMethod_HMAC_SHA1</title>
<a xlink:href="miiCard.Consumers.oauth.OAuth.html" xlink:title="OAuthSignatureMethod_HMAC_SHA1" target="_parent">
<polygon fill="none" stroke="black" points="815.5,-1006 596.5,-1006 596.5,-970 815.5,-970 815.5,-1006"/>
<text text-anchor="middle" x="706" y="-985.2" font-family="Courier,monospace" font-size="11.00">OAuthSignatureMethod_HMAC_SHA1</text>
</a>
</g>
<!-- \\OAuthSignatureMethod_HMAC_SHA1&#45;&gt;\\OAuthSignatureMethod -->
<g id="edge23" class="edge"><title>\\OAuthSignatureMethod_HMAC_SHA1&#45;&gt;\\OAuthSignatureMethod</title>
<path fill="none" stroke="black" d="M611.632,-969.967C606.144,-967.369 600.88,-964.397 596,-961 494.406,-890.27 428.907,-750.642 404.614,-691.502"/>
<polygon fill="none" stroke="black" points="407.798,-690.04 400.812,-682.075 401.306,-692.658 407.798,-690.04"/>
</g>
<!-- \\OAuthSignatureMethod_PLAINTEXT -->
<g id="node27" class="node"><title>\\OAuthSignatureMethod_PLAINTEXT</title>
<a xlink:href="miiCard.Consumers.oauth.OAuth.html" xlink:title="OAuthSignatureMethod_PLAINTEXT" target="_parent">
<polygon fill="none" stroke="black" points="815.5,-682 596.5,-682 596.5,-646 815.5,-646 815.5,-682"/>
<text text-anchor="middle" x="706" y="-661.2" font-family="Courier,monospace" font-size="11.00">OAuthSignatureMethod_PLAINTEXT</text>
</a>
</g>
<!-- \\OAuthSignatureMethod_PLAINTEXT&#45;&gt;\\OAuthSignatureMethod -->
<g id="edge25" class="edge"><title>\\OAuthSignatureMethod_PLAINTEXT&#45;&gt;\\OAuthSignatureMethod</title>
<path fill="none" stroke="black" d="M596.227,-664C558.284,-664 516.249,-664 480.376,-664"/>
<polygon fill="none" stroke="black" points="479.942,-660.5 469.942,-664 479.942,-667.5 479.942,-660.5"/>
</g>
<!-- \\OAuthSignatureMethod_RSA_SHA1 -->
<g id="node28" class="node"><title>\\OAuthSignatureMethod_RSA_SHA1</title>
<a xlink:href="miiCard.Consumers.oauth.OAuth.html" xlink:title="«abstract»&lt;br/&gt;OAuthSignatureMethod_RSA_SHA1" target="_parent">
<polygon fill="none" stroke="black" points="812.5,-520 599.5,-520 599.5,-484 812.5,-484 812.5,-520"/>
<text text-anchor="start" x="672" y="-505.7" font-family="Courier,monospace" font-size="11.00">«abstract»</text>
<text text-anchor="start" x="608" y="-494.7" font-family="Courier,monospace" font-size="11.00">OAuthSignatureMethod_RSA_SHA1</text>
</a>
</g>
<!-- \\OAuthSignatureMethod_RSA_SHA1&#45;&gt;\\OAuthSignatureMethod -->
<g id="edge27" class="edge"><title>\\OAuthSignatureMethod_RSA_SHA1&#45;&gt;\\OAuthSignatureMethod</title>
<path fill="none" stroke="black" d="M610.976,-520.125C605.711,-522.702 600.67,-525.644 596,-529 547.643,-563.754 573.629,-609.088 524,-642 510.933,-650.665 495.552,-656.269 480.031,-659.828"/>
<polygon fill="none" stroke="black" points="478.944,-656.477 469.833,-661.884 480.328,-663.339 478.944,-656.477"/>
</g>
<!-- \\OAuthRequest -->
<g id="node29" class="node"><title>\\OAuthRequest</title>
<a xlink:href="miiCard.Consumers.oauth.OAuth.html" xlink:title="OAuthRequest" target="_parent">
<polygon fill="none" stroke="black" points="755,-358 657,-358 657,-322 755,-322 755,-358"/>
<text text-anchor="middle" x="706" y="-337.2" font-family="Courier,monospace" font-size="11.00">OAuthRequest</text>
</a>
</g>
<!-- \\OAuthServer -->
<g id="node30" class="node"><title>\\OAuthServer</title>
<a xlink:href="miiCard.Consumers.oauth.OAuth.html" xlink:title="OAuthServer" target="_parent">
<polygon fill="none" stroke="black" points="751.5,-304 660.5,-304 660.5,-268 751.5,-268 751.5,-304"/>
<text text-anchor="middle" x="706" y="-283.2" font-family="Courier,monospace" font-size="11.00">OAuthServer</text>
</a>
</g>
<!-- \\OAuthDataStore -->
<g id="node31" class="node"><title>\\OAuthDataStore</title>
<a xlink:href="miiCard.Consumers.oauth.OAuth.html" xlink:title="OAuthDataStore" target="_parent">
<polygon fill="none" stroke="black" points="761.5,-250 650.5,-250 650.5,-214 761.5,-214 761.5,-250"/>
<text text-anchor="middle" x="706" y="-229.2" font-family="Courier,monospace" font-size="11.00">OAuthDataStore</text>
</a>
</g>
<!-- \\OAuthUtil -->
<g id="node32" class="node"><title>\\OAuthUtil</title>
<a xlink:href="miiCard.Consumers.oauth.OAuth.html" xlink:title="OAuthUtil" target="_parent">
<polygon fill="none" stroke="black" points="744.5,-196 667.5,-196 667.5,-160 744.5,-160 744.5,-196"/>
<text text-anchor="middle" x="706" y="-175.2" font-family="Courier,monospace" font-size="11.00">OAuthUtil</text>
</a>
</g>
<!-- \\MiiUserProfileTest -->
<g id="node33" class="node"><title>\\MiiUserProfileTest</title>
<a xlink:href="miiCard.Consumers.test.miiCard.Consumers.Test.html" xlink:title="MiiUserProfileTest" target="_parent">
<polygon fill="none" stroke="black" points="775,-142 637,-142 637,-106 775,-106 775,-142"/>
<text text-anchor="middle" x="706" y="-121.2" font-family="Courier,monospace" font-size="11.00">MiiUserProfileTest</text>
</a>
</g>
<!-- \\PHPUnit_Framework_TestCase -->
<g id="node49" class="node"><title>\\PHPUnit_Framework_TestCase</title>
<ellipse fill="none" stroke="black" cx="393" cy="-18" rx="130.777" ry="18"/>
<text text-anchor="middle" x="393" y="-14.3" font-family="Times New Roman,serif" font-size="14.00" fill="gray">\PHPUnit_Framework_TestCase</text>
</g>
<!-- \\MiiUserProfileTest&#45;&gt;\\PHPUnit_Framework_TestCase -->
<g id="edge29" class="edge"><title>\\MiiUserProfileTest&#45;&gt;\\PHPUnit_Framework_TestCase</title>
<path fill="none" stroke="black" d="M669.447,-105.857C633.548,-88.1717 576.111,-61.5868 524,-45 511.485,-41.0165 498.101,-37.4687 484.855,-34.36"/>
<polygon fill="none" stroke="black" points="485.297,-30.8711 474.77,-32.0684 483.746,-37.6971 485.297,-30.8711"/>
</g>
</g>
</svg>
