<?xml version="1.0" encoding="UTF-8" standalone="no"?>
<!DOCTYPE svg PUBLIC "-//W3C//DTD SVG 1.1//EN"
 "http://www.w3.org/Graphics/SVG/1.1/DTD/svg11.dtd">
<!-- Generated by graphviz version 2.28.0 (20110507.0327)
 -->
<!-- Title: G Pages: 1 -->
<svg width="840pt" height="1644pt"
 viewBox="0.00 0.00 840.00 1644.00" xmlns="http://www.w3.org/2000/svg" xmlns:xlink="http://www.w3.org/1999/xlink">
<g id="graph1" class="graph" transform="scale(1 1) rotate(0) translate(4 1640)">
<title>G</title>
<polygon fill="white" stroke="white" points="-4,5 -4,-1640 837,-1640 837,5 -4,5"/>
<g id="graph2" class="cluster"><title>cluster_global</title>
<polyline fill="none" stroke="gray" points="20,-98 812,-98 "/>
<path fill="none" stroke="gray" d="M812,-98C818,-98 824,-104 824,-110"/>
<polyline fill="none" stroke="gray" points="824,-110 824,-1616 "/>
<path fill="none" stroke="gray" d="M824,-1616C824,-1622 818,-1628 812,-1628"/>
<polyline fill="none" stroke="gray" points="812,-1628 20,-1628 "/>
<path fill="none" stroke="gray" d="M20,-1628C14,-1628 8,-1622 8,-1616"/>
<polyline fill="none" stroke="gray" points="8,-1616 8,-110 "/>
<path fill="none" stroke="gray" d="M8,-110C8,-104 14,-98 20,-98"/>
<text text-anchor="middle" x="416" y="-1615.2" font-family="Times New Roman,serif" font-size="11.00" fill="gray">global</text>
</g>
<!-- \\MiiCardServiceUrls -->
<g id="node2" class="node"><title>\\MiiCardServiceUrls</title>
<a xlink:href="miiCard.Consumers.miiCard.Consumers.html" xlink:title="MiiCardServiceUrls" target="_parent">
<polygon fill="none" stroke="black" points="775,-1600 637,-1600 637,-1564 775,-1564 775,-1600"/>
<text text-anchor="middle" x="706" y="-1579.2" font-family="Courier,monospace" font-size="11.00">MiiCardServiceUrls</text>
</a>
</g>
<!-- \\OAuthSignedRequestMaker -->
<g id="node3" class="node"><title>\\OAuthSignedRequestMaker</title>
<a xlink:href="miiCard.Consumers.miiCard.Consumers.html" xlink:title="«abstract»&lt;br/&gt;OAuthSignedRequestMaker" target="_parent">
<polygon fill="none" stroke="black" points="189.5,-1519 16.5,-1519 16.5,-1483 189.5,-1483 189.5,-1519"/>
<text text-anchor="start" x="69" y="-1504.7" font-family="Courier,monospace" font-size="11.00">«abstract»</text>
<text text-anchor="start" x="25" y="-1493.7" font-family="Courier,monospace" font-size="11.00">OAuthSignedRequestMaker</text>
</a>
</g>
<!-- \\MiiCardException -->
<g id="node4" class="node"><title>\\MiiCardException</title>
<a xlink:href="miiCard.Consumers.miiCard.Consumers.html" xlink:title="MiiCardException" target="_parent">
<polygon fill="none" stroke="black" points="768.5,-520 643.5,-520 643.5,-484 768.5,-484 768.5,-520"/>
<text text-anchor="middle" x="706" y="-499.2" font-family="Courier,monospace" font-size="11.00">MiiCardException</text>
</a>
</g>
<!-- \\Exception -->
<g id="node36" class="node"><title>\\Exception</title>
<ellipse fill="none" stroke="black" cx="393" cy="-72" rx="50.0912" ry="18"/>
<text text-anchor="middle" x="393" y="-68.3" font-family="Times New Roman,serif" font-size="14.00" fill="gray">\Exception</text>
</g>
<!-- \\MiiCardException&#45;&gt;\\Exception -->
<g id="edge3" class="edge"><title>\\MiiCardException&#45;&gt;\\Exception</title>
<path fill="none" stroke="black" d="M643.285,-499.001C625.865,-495.186 608.322,-488.033 596,-475 477.606,-349.778 647.016,-214.685 524,-94 505.258,-75.6136 477.215,-69.2866 451.967,-67.9036"/>
<polygon fill="none" stroke="black" points="451.823,-64.3978 441.722,-67.595 451.612,-71.3946 451.823,-64.3978"/>
</g>
<!-- \\MiiCardOAuthServiceBase -->
<g id="node5" class="node"><title>\\MiiCardOAuthServiceBase</title>
<a xlink:href="miiCard.Consumers.miiCard.Consumers.html" xlink:title="«abstract»&lt;br/&gt;MiiCardOAuthServiceBase" target="_parent">
<polygon fill="none" stroke="black" points="479.5,-1546 306.5,-1546 306.5,-1510 479.5,-1510 479.5,-1546"/>
<text text-anchor="start" x="359" y="-1531.7" font-family="Courier,monospace" font-size="11.00">«abstract»</text>
<text text-anchor="start" x="315" y="-1520.7" font-family="Courier,monospace" font-size="11.00">MiiCardOAuthServiceBase</text>
</a>
</g>
<!-- \\MiiCardOAuthServiceBase&#45;&gt;\\OAuthSignedRequestMaker -->
<g id="edge5" class="edge"><title>\\MiiCardOAuthServiceBase&#45;&gt;\\OAuthSignedRequestMaker</title>
<path fill="none" stroke="black" d="M306.37,-1519.97C272.868,-1516.83 234.291,-1513.21 199.862,-1509.99"/>
<polygon fill="none" stroke="black" points="200.08,-1506.49 189.797,-1509.04 199.427,-1513.46 200.08,-1506.49"/>
</g>
<!-- \\MiiCardOAuthClaimsService -->
<g id="node6" class="node"><title>\\MiiCardOAuthClaimsService</title>
<a xlink:href="miiCard.Consumers.miiCard.Consumers.html" xlink:title="MiiCardOAuthClaimsService" target="_parent">
<polygon fill="none" stroke="black" points="798.5,-1546 613.5,-1546 613.5,-1510 798.5,-1510 798.5,-1546"/>
<text text-anchor="middle" x="706" y="-1525.2" font-family="Courier,monospace" font-size="11.00">MiiCardOAuthClaimsService</text>
</a>
</g>
<!-- \\MiiCardOAuthClaimsService&#45;&gt;\\MiiCardOAuthServiceBase -->
<g id="edge7" class="edge"><title>\\MiiCardOAuthClaimsService&#45;&gt;\\MiiCardOAuthServiceBase</title>
<path fill="none" stroke="black" d="M613.372,-1528C574.473,-1528 529.119,-1528 489.779,-1528"/>
<polygon fill="none" stroke="black" points="489.651,-1524.5 479.651,-1528 489.651,-1531.5 489.651,-1524.5"/>
</g>
<!-- \\MiiCard -->
<g id="node7" class="node"><title>\\MiiCard</title>
<a xlink:href="miiCard.Consumers.miiCard.Consumers.html" xlink:title="MiiCard" target="_parent">
<polygon fill="none" stroke="black" points="425,-1492 361,-1492 361,-1456 425,-1456 425,-1492"/>
<text text-anchor="middle" x="393" y="-1471.2" font-family="Courier,monospace" font-size="11.00">MiiCard</text>
</a>
</g>
<!-- \\MiiCard&#45;&gt;\\OAuthSignedRequestMaker -->
<g id="edge9" class="edge"><title>\\MiiCard&#45;&gt;\\OAuthSignedRequestMaker</title>
<path fill="none" stroke="black" d="M360.905,-1476.92C322.634,-1480.5 255.849,-1486.76 199.964,-1492"/>
<polygon fill="none" stroke="black" points="199.295,-1488.55 189.666,-1492.97 199.949,-1495.52 199.295,-1488.55"/>
</g>
<!-- \\MiiApiCallStatus -->
<g id="node8" class="node"><title>\\MiiApiCallStatus</title>
<a xlink:href="miiCard.Consumers.miiCard.Model.html" xlink:title="MiiApiCallStatus" target="_parent">
<polygon fill="none" stroke="black" points="768.5,-1438 643.5,-1438 643.5,-1402 768.5,-1402 768.5,-1438"/>
<text text-anchor="middle" x="706" y="-1417.2" font-family="Courier,monospace" font-size="11.00">MiiApiCallStatus</text>
</a>
</g>
<!-- \\MiiApiErrorCode -->
<g id="node9" class="node"><title>\\MiiApiErrorCode</title>
<a xlink:href="miiCard.Consumers.miiCard.Model.html" xlink:title="MiiApiErrorCode" target="_parent">
<polygon fill="none" stroke="black" points="765,-1384 647,-1384 647,-1348 765,-1348 765,-1384"/>
<text text-anchor="middle" x="706" y="-1363.2" font-family="Courier,monospace" font-size="11.00">MiiApiErrorCode</text>
</a>
</g>
<!-- \\WebPropertyType -->
<g id="node10" class="node"><title>\\WebPropertyType</title>
<a xlink:href="miiCard.Consumers.miiCard.Model.html" xlink:title="WebPropertyType" target="_parent">
<polygon fill="none" stroke="black" points="765,-1330 647,-1330 647,-1294 765,-1294 765,-1330"/>
<text text-anchor="middle" x="706" y="-1309.2" font-family="Courier,monospace" font-size="11.00">WebPropertyType</text>
</a>
</g>
<!-- \\Claim -->
<g id="node11" class="node"><title>\\Claim</title>
<a xlink:href="miiCard.Consumers.miiCard.Model.html" xlink:title="«abstract»&lt;br/&gt;Claim" target="_parent">
<polygon fill="none" stroke="black" points="435.5,-1222 350.5,-1222 350.5,-1186 435.5,-1186 435.5,-1222"/>
<text text-anchor="start" x="359" y="-1207.7" font-family="Courier,monospace" font-size="11.00">«abstract»</text>
<text text-anchor="start" x="376" y="-1196.7" font-family="Courier,monospace" font-size="11.00">Claim</text>
</a>
</g>
<!-- \\Identity -->
<g id="node12" class="node"><title>\\Identity</title>
<a xlink:href="miiCard.Consumers.miiCard.Model.html" xlink:title="Identity" target="_parent">
<polygon fill="none" stroke="black" points="741.5,-1168 670.5,-1168 670.5,-1132 741.5,-1132 741.5,-1168"/>
<text text-anchor="middle" x="706" y="-1147.2" font-family="Courier,monospace" font-size="11.00">Identity</text>
</a>
</g>
<!-- \\Identity&#45;&gt;\\Claim -->
<g id="edge11" class="edge"><title>\\Identity&#45;&gt;\\Claim</title>
<path fill="none" stroke="black" d="M670.23,-1156.04C615.652,-1165.51 509.549,-1183.94 445.909,-1194.99"/>
<polygon fill="none" stroke="black" points="444.945,-1191.6 435.692,-1196.76 446.143,-1198.5 444.945,-1191.6"/>
</g>
<!-- \\EmailAddress -->
<g id="node13" class="node"><title>\\EmailAddress</title>
<a xlink:href="miiCard.Consumers.miiCard.Model.html" xlink:title="EmailAddress" target="_parent">
<polygon fill="none" stroke="black" points="755,-1114 657,-1114 657,-1078 755,-1078 755,-1114"/>
<text text-anchor="middle" x="706" y="-1093.2" font-family="Courier,monospace" font-size="11.00">EmailAddress</text>
</a>
</g>
<!-- \\EmailAddress&#45;&gt;\\Claim -->
<g id="edge13" class="edge"><title>\\EmailAddress&#45;&gt;\\Claim</title>
<path fill="none" stroke="black" d="M656.844,-1106.41C637.735,-1110.94 615.667,-1116.65 596,-1123 543.069,-1140.08 484.223,-1164.3 443.764,-1181.8"/>
<polygon fill="none" stroke="black" points="442.175,-1178.67 434.4,-1185.87 444.967,-1185.09 442.175,-1178.67"/>
</g>
<!-- \\PhoneNumber -->
<g id="node14" class="node"><title>\\PhoneNumber</title>
<a xlink:href="miiCard.Consumers.miiCard.Model.html" xlink:title="PhoneNumber" target="_parent">
<polygon fill="none" stroke="black" points="751.5,-1492 660.5,-1492 660.5,-1456 751.5,-1456 751.5,-1492"/>
<text text-anchor="middle" x="706" y="-1471.2" font-family="Courier,monospace" font-size="11.00">PhoneNumber</text>
</a>
</g>
<!-- \\PhoneNumber&#45;&gt;\\Claim -->
<g id="edge15" class="edge"><title>\\PhoneNumber&#45;&gt;\\Claim</title>
<path fill="none" stroke="black" d="M660.317,-1469.43C639.545,-1465.74 615.243,-1459.07 596,-1447 506.519,-1390.89 437.383,-1281.75 408.597,-1231.07"/>
<polygon fill="none" stroke="black" points="411.634,-1229.33 403.696,-1222.31 405.526,-1232.75 411.634,-1229.33"/>
</g>
<!-- \\PostalAddress -->
<g id="node15" class="node"><title>\\PostalAddress</title>
<a xlink:href="miiCard.Consumers.miiCard.Model.html" xlink:title="PostalAddress" target="_parent">
<polygon fill="none" stroke="black" points="758,-1276 654,-1276 654,-1240 758,-1240 758,-1276"/>
<text text-anchor="middle" x="706" y="-1255.2" font-family="Courier,monospace" font-size="11.00">PostalAddress</text>
</a>
</g>
<!-- \\PostalAddress&#45;&gt;\\Claim -->
<g id="edge17" class="edge"><title>\\PostalAddress&#45;&gt;\\Claim</title>
<path fill="none" stroke="black" d="M653.993,-1249.14C596.445,-1239.15 503.361,-1222.99 445.579,-1212.96"/>
<polygon fill="none" stroke="black" points="446.02,-1209.48 435.569,-1211.22 444.822,-1216.38 446.02,-1209.48"/>
</g>
<!-- \\WebProperty -->
<g id="node16" class="node"><title>\\WebProperty</title>
<a xlink:href="miiCard.Consumers.miiCard.Model.html" xlink:title="WebProperty" target="_parent">
<polygon fill="none" stroke="black" points="751.5,-1222 660.5,-1222 660.5,-1186 751.5,-1186 751.5,-1222"/>
<text text-anchor="middle" x="706" y="-1201.2" font-family="Courier,monospace" font-size="11.00">WebProperty</text>
</a>
</g>
<!-- \\WebProperty&#45;&gt;\\Claim -->
<g id="edge19" class="edge"><title>\\WebProperty&#45;&gt;\\Claim</title>
<path fill="none" stroke="black" d="M660.441,-1204C603.76,-1204 506.042,-1204 446.011,-1204"/>
<polygon fill="none" stroke="black" points="445.986,-1200.5 435.986,-1204 445.986,-1207.5 445.986,-1200.5"/>
</g>
<!-- \\MiiUserProfile -->
<g id="node17" class="node"><title>\\MiiUserProfile</title>
<a xlink:href="miiCard.Consumers.miiCard.Model.html" xlink:title="MiiUserProfile" target="_parent">
<polygon fill="none" stroke="black" points="761.5,-1006 650.5,-1006 650.5,-970 761.5,-970 761.5,-1006"/>
<text text-anchor="middle" x="706" y="-985.2" font-family="Courier,monospace" font-size="11.00">MiiUserProfile</text>
</a>
</g>
<!-- \\IdentitySnapshotDetails -->
<g id="node18" class="node"><title>\\IdentitySnapshotDetails</title>
<a xlink:href="miiCard.Consumers.miiCard.Model.html" xlink:title="IdentitySnapshotDetails" target="_parent">
<polygon fill="none" stroke="black" points="792,-952 620,-952 620,-916 792,-916 792,-952"/>
<text text-anchor="middle" x="706" y="-931.2" font-family="Courier,monospace" font-size="11.00">IdentitySnapshotDetails</text>
</a>
</g>
<!-- \\IdentitySnapshot -->
<g id="node19" class="node"><title>\\IdentitySnapshot</title>
<a xlink:href="miiCard.Consumers.miiCard.Model.html" xlink:title="IdentitySnapshot" target="_parent">
<polygon fill="none" stroke="black" points="768.5,-898 643.5,-898 643.5,-862 768.5,-862 768.5,-898"/>
<text text-anchor="middle" x="706" y="-877.2" font-family="Courier,monospace" font-size="11.00">IdentitySnapshot</text>
</a>
</g>
<!-- \\MiiApiResponse -->
<g id="node20" class="node"><title>\\MiiApiResponse</title>
<a xlink:href="miiCard.Consumers.miiCard.Model.html" xlink:title="MiiApiResponse" target="_parent">
<polygon fill="none" stroke="black" points="761.5,-844 650.5,-844 650.5,-808 761.5,-808 761.5,-844"/>
<text text-anchor="middle" x="706" y="-823.2" font-family="Courier,monospace" font-size="11.00">MiiApiResponse</text>
</a>
</g>
<!-- \\Util -->
<g id="node21" class="node"><title>\\Util</title>
<a xlink:href="miiCard.Consumers.miiCard.Model.html" xlink:title="Util" target="_parent">
<polygon fill="none" stroke="black" points="733,-790 679,-790 679,-754 733,-754 733,-790"/>
<text text-anchor="middle" x="706" y="-769.2" font-family="Courier,monospace" font-size="11.00">Util</text>
</a>
</g>
<!-- \\OAuthException -->
<g id="node22" class="node"><title>\\OAuthException</title>
<a xlink:href="miiCard.Consumers.oauth.OAuth.html" xlink:title="OAuthException" target="_parent">
<polygon fill="none" stroke="black" points="761.5,-466 650.5,-466 650.5,-430 761.5,-430 761.5,-466"/>
<text text-anchor="middle" x="706" y="-445.2" font-family="Courier,monospace" font-size="11.00">OAuthException</text>
</a>
</g>
<!-- \\OAuthException&#45;&gt;\\Exception -->
<g id="edge21" class="edge"><title>\\OAuthException&#45;&gt;\\Exception</title>
<path fill="none" stroke="black" d="M650.315,-446.107C630.791,-442.702 610.149,-435.523 596,-421 492.154,-314.408 631.778,-196.614 524,-94 505.058,-75.9657 477.128,-69.6471 452.007,-68.1788"/>
<polygon fill="none" stroke="black" points="451.928,-64.6741 441.814,-67.8301 451.689,-71.67 451.928,-64.6741"/>
</g>
<!-- \\OAuthConsumer -->
<g id="node23" class="node"><title>\\OAuthConsumer</title>
<a xlink:href="miiCard.Consumers.oauth.OAuth.html" xlink:title="OAuthConsumer" target="_parent">
<polygon fill="none" stroke="black" points="758,-682 654,-682 654,-646 758,-646 758,-682"/>
<text text-anchor="middle" x="706" y="-661.2" font-family="Courier,monospace" font-size="11.00">OAuthConsumer</text>
</a>
</g>
<!-- \\OAuthToken -->
<g id="node24" class="node"><title>\\OAuthToken</title>
<a xlink:href="miiCard.Consumers.oauth.OAuth.html" xlink:title="OAuthToken" target="_parent">
<polygon fill="none" stroke="black" points="748,-628 664,-628 664,-592 748,-592 748,-628"/>
<text text-anchor="middle" x="706" y="-607.2" font-family="Courier,monospace" font-size="11.00">OAuthToken</text>
</a>
</g>
<!-- \\OAuthSignatureMethod -->
<g id="node25" class="node"><title>\\OAuthSignatureMethod</title>
<a xlink:href="miiCard.Consumers.oauth.OAuth.html" xlink:title="«abstract»&lt;br/&gt;OAuthSignatureMethod" target="_parent">
<polygon fill="none" stroke="black" points="469.5,-736 316.5,-736 316.5,-700 469.5,-700 469.5,-736"/>
<text text-anchor="start" x="359" y="-721.7" font-family="Courier,monospace" font-size="11.00">«abstract»</text>
<text text-anchor="start" x="325" y="-710.7" font-family="Courier,monospace" font-size="11.00">OAuthSignatureMethod</text>
</a>
</g>
<!-- \\OAuthSignatureMethod_HMAC_SHA1 -->
<g id="node26" class="node"><title>\\OAuthSignatureMethod_HMAC_SHA1</title>
<a xlink:href="miiCard.Consumers.oauth.OAuth.html" xlink:title="OAuthSignatureMethod_HMAC_SHA1" target="_parent">
<polygon fill="none" stroke="black" points="815.5,-736 596.5,-736 596.5,-700 815.5,-700 815.5,-736"/>
<text text-anchor="middle" x="706" y="-715.2" font-family="Courier,monospace" font-size="11.00">OAuthSignatureMethod_HMAC_SHA1</text>
</a>
</g>
<!-- \\OAuthSignatureMethod_HMAC_SHA1&#45;&gt;\\OAuthSignatureMethod -->
<g id="edge23" class="edge"><title>\\OAuthSignatureMethod_HMAC_SHA1&#45;&gt;\\OAuthSignatureMethod</title>
<path fill="none" stroke="black" d="M596.227,-718C558.284,-718 516.249,-718 480.376,-718"/>
<polygon fill="none" stroke="black" points="479.942,-714.5 469.942,-718 479.942,-721.5 479.942,-714.5"/>
</g>
<!-- \\OAuthSignatureMethod_PLAINTEXT -->
<g id="node27" class="node"><title>\\OAuthSignatureMethod_PLAINTEXT</title>
<a xlink:href="miiCard.Consumers.oauth.OAuth.html" xlink:title="OAuthSignatureMethod_PLAINTEXT" target="_parent">
<polygon fill="none" stroke="black" points="815.5,-574 596.5,-574 596.5,-538 815.5,-538 815.5,-574"/>
<text text-anchor="middle" x="706" y="-553.2" font-family="Courier,monospace" font-size="11.00">OAuthSignatureMethod_PLAINTEXT</text>
</a>
</g>
<!-- \\OAuthSignatureMethod_PLAINTEXT&#45;&gt;\\OAuthSignatureMethod -->
<g id="edge25" class="edge"><title>\\OAuthSignatureMethod_PLAINTEXT&#45;&gt;\\OAuthSignatureMethod</title>
<path fill="none" stroke="black" d="M610.976,-574.125C605.711,-576.702 600.67,-579.644 596,-583 547.643,-617.754 573.629,-663.088 524,-696 510.933,-704.665 495.552,-710.269 480.031,-713.828"/>
<polygon fill="none" stroke="black" points="478.944,-710.477 469.833,-715.884 480.328,-717.339 478.944,-710.477"/>
</g>
<!-- \\OAuthSignatureMethod_RSA_SHA1 -->
<g id="node28" class="node"><title>\\OAuthSignatureMethod_RSA_SHA1</title>
<a xlink:href="miiCard.Consumers.oauth.OAuth.html" xlink:title="«abstract»&lt;br/&gt;OAuthSignatureMethod_RSA_SHA1" target="_parent">
<polygon fill="none" stroke="black" points="812.5,-1060 599.5,-1060 599.5,-1024 812.5,-1024 812.5,-1060"/>
<text text-anchor="start" x="672" y="-1045.7" font-family="Courier,monospace" font-size="11.00">«abstract»</text>
<text text-anchor="start" x="608" y="-1034.7" font-family="Courier,monospace" font-size="11.00">OAuthSignatureMethod_RSA_SHA1</text>
</a>
</g>
<!-- \\OAuthSignatureMethod_RSA_SHA1&#45;&gt;\\OAuthSignatureMethod -->
<g id="edge27" class="edge"><title>\\OAuthSignatureMethod_RSA_SHA1&#45;&gt;\\OAuthSignatureMethod</title>
<path fill="none" stroke="black" d="M611.632,-1023.97C606.144,-1021.37 600.88,-1018.4 596,-1015 494.406,-944.27 428.907,-804.642 404.614,-745.502"/>
<polygon fill="none" stroke="black" points="407.798,-744.04 400.812,-736.075 401.306,-746.658 407.798,-744.04"/>
</g>
<!-- \\OAuthRequest -->
<g id="node29" class="node"><title>\\OAuthRequest</title>
<a xlink:href="miiCard.Consumers.oauth.OAuth.html" xlink:title="OAuthRequest" target="_parent">
<polygon fill="none" stroke="black" points="755,-412 657,-412 657,-376 755,-376 755,-412"/>
<text text-anchor="middle" x="706" y="-391.2" font-family="Courier,monospace" font-size="11.00">OAuthRequest</text>
</a>
</g>
<!-- \\OAuthServer -->
<g id="node30" class="node"><title>\\OAuthServer</title>
<a xlink:href="miiCard.Consumers.oauth.OAuth.html" xlink:title="OAuthServer" target="_parent">
<polygon fill="none" stroke="black" points="751.5,-358 660.5,-358 660.5,-322 751.5,-322 751.5,-358"/>
<text text-anchor="middle" x="706" y="-337.2" font-family="Courier,monospace" font-size="11.00">OAuthServer</text>
</a>
</g>
<!-- \\OAuthDataStore -->
<g id="node31" class="node"><title>\\OAuthDataStore</title>
<a xlink:href="miiCard.Consumers.oauth.OAuth.html" xlink:title="OAuthDataStore" target="_parent">
<polygon fill="none" stroke="black" points="761.5,-304 650.5,-304 650.5,-268 761.5,-268 761.5,-304"/>
<text text-anchor="middle" x="706" y="-283.2" font-family="Courier,monospace" font-size="11.00">OAuthDataStore</text>
</a>
</g>
<!-- \\OAuthUtil -->
<g id="node32" class="node"><title>\\OAuthUtil</title>
<a xlink:href="miiCard.Consumers.oauth.OAuth.html" xlink:title="OAuthUtil" target="_parent">
<polygon fill="none" stroke="black" points="744.5,-250 667.5,-250 667.5,-214 744.5,-214 744.5,-250"/>
<text text-anchor="middle" x="706" y="-229.2" font-family="Courier,monospace" font-size="11.00">OAuthUtil</text>
</a>
</g>
<!-- \\IdentitySnapshotDetailsTest -->
<g id="node33" class="node"><title>\\IdentitySnapshotDetailsTest</title>
<a xlink:href="miiCard.Consumers.test.miiCard.Consumers.Test.html" xlink:title="IdentitySnapshotDetailsTest" target="_parent">
<polygon fill="none" stroke="black" points="805.5,-196 606.5,-196 606.5,-160 805.5,-160 805.5,-196"/>
<text text-anchor="middle" x="706" y="-175.2" font-family="Courier,monospace" font-size="11.00">IdentitySnapshotDetailsTest</text>
</a>
</g>
<!-- \\PHPUnit_Framework_TestCase -->
<g id="node50" class="node"><title>\\PHPUnit_Framework_TestCase</title>
<ellipse fill="none" stroke="black" cx="393" cy="-18" rx="130.777" ry="18"/>
<text text-anchor="middle" x="393" y="-14.3" font-family="Times New Roman,serif" font-size="14.00" fill="gray">\PHPUnit_Framework_TestCase</text>
</g>
<!-- \\IdentitySnapshotDetailsTest&#45;&gt;\\PHPUnit_Framework_TestCase -->
<g id="edge29" class="edge"><title>\\IdentitySnapshotDetailsTest&#45;&gt;\\PHPUnit_Framework_TestCase</title>
<path fill="none" stroke="black" d="M611.63,-159.97C606.142,-157.371 600.879,-154.399 596,-151 549.27,-118.446 571.34,-76.6599 524,-45 517.045,-40.3488 509.449,-36.4737 501.533,-33.2483"/>
<polygon fill="none" stroke="black" points="502.707,-29.9505 492.114,-29.7526 500.271,-36.5132 502.707,-29.9505"/>
</g>
<!-- \\MiiUserProfileTest -->
<g id="node34" class="node"><title>\\MiiUserProfileTest</title>
<a xlink:href="miiCard.Consumers.test.miiCard.Consumers.Test.html" xlink:title="MiiUserProfileTest" target="_parent">
<polygon fill="none" stroke="black" points="775,-142 637,-142 637,-106 775,-106 775,-142"/>
<text text-anchor="middle" x="706" y="-121.2" font-family="Courier,monospace" font-size="11.00">MiiUserProfileTest</text>
</a>
</g>
<!-- \\MiiUserProfileTest&#45;&gt;\\PHPUnit_Framework_TestCase -->
<g id="edge31" class="edge"><title>\\MiiUserProfileTest&#45;&gt;\\PHPUnit_Framework_TestCase</title>
<path fill="none" stroke="black" d="M669.447,-105.857C633.548,-88.1717 576.111,-61.5868 524,-45 511.485,-41.0165 498.101,-37.4687 484.855,-34.36"/>
<polygon fill="none" stroke="black" points="485.297,-30.8711 474.77,-32.0684 483.746,-37.6971 485.297,-30.8711"/>
</g>
</g>
</svg>
