<?xml version="1.0" encoding="UTF-8" standalone="no"?>
<!DOCTYPE svg PUBLIC "-//W3C//DTD SVG 1.1//EN"
 "http://www.w3.org/Graphics/SVG/1.1/DTD/svg11.dtd">
<!-- Generated by graphviz version 2.28.0 (20110507.0327)
 -->
<!-- Title: G Pages: 1 -->
<svg width="1558pt" height="1086pt"
 viewBox="0.00 0.00 1558.00 1086.00" xmlns="http://www.w3.org/2000/svg" xmlns:xlink="http://www.w3.org/1999/xlink">
<g id="graph1" class="graph" transform="scale(1 1) rotate(0) translate(4 1082)">
<title>G</title>
<polygon fill="white" stroke="white" points="-4,5 -4,-1082 1555,-1082 1555,5 -4,5"/>
<g id="graph2" class="cluster"><title>cluster_global</title>
<polyline fill="none" stroke="gray" points="698,-98 1418,-98 "/>
<path fill="none" stroke="gray" d="M1418,-98C1424,-98 1430,-104 1430,-110"/>
<polyline fill="none" stroke="gray" points="1430,-110 1430,-752 "/>
<path fill="none" stroke="gray" d="M1430,-752C1430,-758 1424,-764 1418,-764"/>
<polyline fill="none" stroke="gray" points="1418,-764 698,-764 "/>
<path fill="none" stroke="gray" d="M698,-764C692,-764 686,-758 686,-752"/>
<polyline fill="none" stroke="gray" points="686,-752 686,-110 "/>
<path fill="none" stroke="gray" d="M686,-110C686,-104 692,-98 698,-98"/>
<text text-anchor="middle" x="1058" y="-751.2" font-family="Times New Roman,serif" font-size="11.00" fill="gray">global</text>
</g>
<!-- \\OAuthException -->
<g id="node2" class="node"><title>\\OAuthException</title>
<a xlink:href="miiCard.Consumers.oauth.OAuth.html" xlink:title="OAuthException" target="_parent">
<polygon fill="none" stroke="black" points="1367.5,-142 1256.5,-142 1256.5,-106 1367.5,-106 1367.5,-142"/>
<text text-anchor="middle" x="1312" y="-121.2" font-family="Courier,monospace" font-size="11.00">OAuthException</text>
</a>
</g>
<!-- \\Exception -->
<g id="node20" class="node"><title>\\Exception</title>
<ellipse fill="none" stroke="black" cx="771" cy="-18" rx="50.0912" ry="18"/>
<text text-anchor="middle" x="771" y="-14.3" font-family="Times New Roman,serif" font-size="14.00" fill="gray">\Exception</text>
</g>
<!-- \\OAuthException&#45;&gt;\\Exception -->
<g id="edge24" class="edge"><title>\\OAuthException&#45;&gt;\\Exception</title>
<path fill="none" stroke="black" d="M1256.24,-127.578C1206.84,-128.823 1133.07,-125.669 1074,-102 1036.11,-86.8196 1039.7,-60.6395 1002,-45 947.163,-22.2506 879.063,-16.7623 831.246,-16.1912"/>
<polygon fill="none" stroke="black" points="831.078,-12.6905 821.061,-16.1401 831.043,-19.6904 831.078,-12.6905"/>
</g>
<!-- \\OAuthConsumer -->
<g id="node3" class="node"><title>\\OAuthConsumer</title>
<a xlink:href="miiCard.Consumers.oauth.OAuth.html" xlink:title="OAuthConsumer" target="_parent">
<polygon fill="none" stroke="black" points="1364,-682 1260,-682 1260,-646 1364,-646 1364,-682"/>
<text text-anchor="middle" x="1312" y="-661.2" font-family="Courier,monospace" font-size="11.00">OAuthConsumer</text>
</a>
</g>
<!-- \\OAuthToken -->
<g id="node4" class="node"><title>\\OAuthToken</title>
<a xlink:href="miiCard.Consumers.oauth.OAuth.html" xlink:title="OAuthToken" target="_parent">
<polygon fill="none" stroke="black" points="1354,-628 1270,-628 1270,-592 1354,-592 1354,-628"/>
<text text-anchor="middle" x="1312" y="-607.2" font-family="Courier,monospace" font-size="11.00">OAuthToken</text>
</a>
</g>
<!-- \\OAuthSignatureMethod -->
<g id="node5" class="node"><title>\\OAuthSignatureMethod</title>
<a xlink:href="miiCard.Consumers.oauth.OAuth.html" xlink:title="«abstract»&lt;br/&gt;OAuthSignatureMethod" target="_parent">
<polygon fill="none" stroke="black" points="847.5,-574 694.5,-574 694.5,-538 847.5,-538 847.5,-574"/>
<text text-anchor="start" x="737" y="-559.7" font-family="Courier,monospace" font-size="11.00">«abstract»</text>
<text text-anchor="start" x="703" y="-548.7" font-family="Courier,monospace" font-size="11.00">OAuthSignatureMethod</text>
</a>
</g>
<!-- \\OAuthSignatureMethod_HMAC_SHA1 -->
<g id="node6" class="node"><title>\\OAuthSignatureMethod_HMAC_SHA1</title>
<a xlink:href="miiCard.Consumers.oauth.OAuth.html" xlink:title="OAuthSignatureMethod_HMAC_SHA1" target="_parent">
<polygon fill="none" stroke="black" points="1421.5,-736 1202.5,-736 1202.5,-700 1421.5,-700 1421.5,-736"/>
<text text-anchor="middle" x="1312" y="-715.2" font-family="Courier,monospace" font-size="11.00">OAuthSignatureMethod_HMAC_SHA1</text>
</a>
</g>
<!-- \\OAuthSignatureMethod_HMAC_SHA1&#45;&gt;\\OAuthSignatureMethod -->
<g id="edge26" class="edge"><title>\\OAuthSignatureMethod_HMAC_SHA1&#45;&gt;\\OAuthSignatureMethod</title>
<path fill="none" stroke="black" d="M1202.39,-725.097C1159.59,-723.128 1111.75,-714.589 1074,-691 1023.5,-659.445 1052.79,-609.097 1002,-578 959.383,-551.905 903.777,-545.997 857.916,-546.809"/>
<polygon fill="none" stroke="black" points="857.583,-543.317 847.687,-547.103 857.784,-550.314 857.583,-543.317"/>
</g>
<!-- \\OAuthSignatureMethod_PLAINTEXT -->
<g id="node7" class="node"><title>\\OAuthSignatureMethod_PLAINTEXT</title>
<a xlink:href="miiCard.Consumers.oauth.OAuth.html" xlink:title="OAuthSignatureMethod_PLAINTEXT" target="_parent">
<polygon fill="none" stroke="black" points="1421.5,-574 1202.5,-574 1202.5,-538 1421.5,-538 1421.5,-574"/>
<text text-anchor="middle" x="1312" y="-553.2" font-family="Courier,monospace" font-size="11.00">OAuthSignatureMethod_PLAINTEXT</text>
</a>
</g>
<!-- \\OAuthSignatureMethod_PLAINTEXT&#45;&gt;\\OAuthSignatureMethod -->
<g id="edge28" class="edge"><title>\\OAuthSignatureMethod_PLAINTEXT&#45;&gt;\\OAuthSignatureMethod</title>
<path fill="none" stroke="black" d="M1202.25,-556C1100.73,-556 951.257,-556 857.872,-556"/>
<polygon fill="none" stroke="black" points="857.612,-552.5 847.612,-556 857.612,-559.5 857.612,-552.5"/>
</g>
<!-- \\OAuthSignatureMethod_RSA_SHA1 -->
<g id="node8" class="node"><title>\\OAuthSignatureMethod_RSA_SHA1</title>
<a xlink:href="miiCard.Consumers.oauth.OAuth.html" xlink:title="«abstract»&lt;br/&gt;OAuthSignatureMethod_RSA_SHA1" target="_parent">
<polygon fill="none" stroke="black" points="1418.5,-520 1205.5,-520 1205.5,-484 1418.5,-484 1418.5,-520"/>
<text text-anchor="start" x="1278" y="-505.7" font-family="Courier,monospace" font-size="11.00">«abstract»</text>
<text text-anchor="start" x="1214" y="-494.7" font-family="Courier,monospace" font-size="11.00">OAuthSignatureMethod_RSA_SHA1</text>
</a>
</g>
<!-- \\OAuthSignatureMethod_RSA_SHA1&#45;&gt;\\OAuthSignatureMethod -->
<g id="edge30" class="edge"><title>\\OAuthSignatureMethod_RSA_SHA1&#45;&gt;\\OAuthSignatureMethod</title>
<path fill="none" stroke="black" d="M1205.19,-513.164C1145.53,-519.407 1069.62,-527.265 1002,-534 954.331,-538.748 901.083,-543.854 857.836,-547.95"/>
<polygon fill="none" stroke="black" points="857.261,-544.489 847.635,-548.916 857.921,-551.458 857.261,-544.489"/>
</g>
<!-- \\OAuthRequest -->
<g id="node9" class="node"><title>\\OAuthRequest</title>
<a xlink:href="miiCard.Consumers.oauth.OAuth.html" xlink:title="OAuthRequest" target="_parent">
<polygon fill="none" stroke="black" points="1361,-412 1263,-412 1263,-376 1361,-376 1361,-412"/>
<text text-anchor="middle" x="1312" y="-391.2" font-family="Courier,monospace" font-size="11.00">OAuthRequest</text>
</a>
</g>
<!-- \\OAuthServer -->
<g id="node10" class="node"><title>\\OAuthServer</title>
<a xlink:href="miiCard.Consumers.oauth.OAuth.html" xlink:title="OAuthServer" target="_parent">
<polygon fill="none" stroke="black" points="1357.5,-358 1266.5,-358 1266.5,-322 1357.5,-322 1357.5,-358"/>
<text text-anchor="middle" x="1312" y="-337.2" font-family="Courier,monospace" font-size="11.00">OAuthServer</text>
</a>
</g>
<!-- \\OAuthDataStore -->
<g id="node11" class="node"><title>\\OAuthDataStore</title>
<a xlink:href="miiCard.Consumers.oauth.OAuth.html" xlink:title="OAuthDataStore" target="_parent">
<polygon fill="none" stroke="black" points="1367.5,-304 1256.5,-304 1256.5,-268 1367.5,-268 1367.5,-304"/>
<text text-anchor="middle" x="1312" y="-283.2" font-family="Courier,monospace" font-size="11.00">OAuthDataStore</text>
</a>
</g>
<!-- \\OAuthUtil -->
<g id="node12" class="node"><title>\\OAuthUtil</title>
<a xlink:href="miiCard.Consumers.oauth.OAuth.html" xlink:title="OAuthUtil" target="_parent">
<polygon fill="none" stroke="black" points="1350.5,-250 1273.5,-250 1273.5,-214 1350.5,-214 1350.5,-250"/>
<text text-anchor="middle" x="1312" y="-229.2" font-family="Courier,monospace" font-size="11.00">OAuthUtil</text>
</a>
</g>
<!-- \\IdentitySnapshotDetailsTest -->
<g id="node13" class="node"><title>\\IdentitySnapshotDetailsTest</title>
<a xlink:href="miiCard.Consumers.test.miiCard.Consumers.Test.html" xlink:title="IdentitySnapshotDetailsTest" target="_parent">
<polygon fill="none" stroke="black" points="1411.5,-466 1212.5,-466 1212.5,-430 1411.5,-430 1411.5,-466"/>
<text text-anchor="middle" x="1312" y="-445.2" font-family="Courier,monospace" font-size="11.00">IdentitySnapshotDetailsTest</text>
</a>
</g>
<!-- \\PHPUnit_Framework_TestCase -->
<g id="node44" class="node"><title>\\PHPUnit_Framework_TestCase</title>
<ellipse fill="none" stroke="black" cx="771" cy="-72" rx="130.777" ry="18"/>
<text text-anchor="middle" x="771" y="-68.3" font-family="Times New Roman,serif" font-size="14.00" fill="gray">\PHPUnit_Framework_TestCase</text>
</g>
<!-- \\IdentitySnapshotDetailsTest&#45;&gt;\\PHPUnit_Framework_TestCase -->
<g id="edge32" class="edge"><title>\\IdentitySnapshotDetailsTest&#45;&gt;\\PHPUnit_Framework_TestCase</title>
<path fill="none" stroke="black" d="M1212.36,-461.418C1165.06,-462.257 1110.83,-454.209 1074,-421 963.48,-321.345 1113.42,-192.653 1002,-94 964.718,-60.9888 909.509,-54.8202 862.526,-57.2235"/>
<polygon fill="none" stroke="black" points="862.08,-53.745 852.327,-57.8838 862.532,-60.7304 862.08,-53.745"/>
</g>
<!-- \\MiiUserProfileTest -->
<g id="node14" class="node"><title>\\MiiUserProfileTest</title>
<a xlink:href="miiCard.Consumers.test.miiCard.Consumers.Test.html" xlink:title="MiiUserProfileTest" target="_parent">
<polygon fill="none" stroke="black" points="1381,-196 1243,-196 1243,-160 1381,-160 1381,-196"/>
<text text-anchor="middle" x="1312" y="-175.2" font-family="Courier,monospace" font-size="11.00">MiiUserProfileTest</text>
</a>
</g>
<!-- \\MiiUserProfileTest&#45;&gt;\\PHPUnit_Framework_TestCase -->
<g id="edge34" class="edge"><title>\\MiiUserProfileTest&#45;&gt;\\PHPUnit_Framework_TestCase</title>
<path fill="none" stroke="black" d="M1242.91,-180.035C1194.15,-179.189 1127.88,-173.243 1074,-151 1036.27,-135.425 1039.86,-109.233 1002,-94 973.915,-82.701 942.4,-76.1519 911.919,-72.5342"/>
<polygon fill="none" stroke="black" points="911.947,-69.0168 901.628,-71.4171 911.192,-75.9759 911.947,-69.0168"/>
</g>
<!-- \\miiCard\\Consumers\\Consumers\\MiiCardException -->
<g id="node18" class="node"><title>\\miiCard\\Consumers\\Consumers\\MiiCardException</title>
<ellipse fill="none" stroke="black" cx="1312" cy="-18" rx="198.465" ry="18"/>
<text text-anchor="middle" x="1312" y="-14.3" font-family="Times New Roman,serif" font-size="14.00" fill="gray">\miiCard\Consumers\Consumers\MiiCardException</text>
</g>
<!-- \\miiCard\\Consumers\\Consumers\\MiiCardException&#45;&gt;\\Exception -->
<g id="edge6" class="edge"><title>\\miiCard\\Consumers\\Consumers\\MiiCardException&#45;&gt;\\Exception</title>
<path fill="none" stroke="black" d="M1113.74,-18C1013.53,-18 898.926,-18 831.164,-18"/>
<polygon fill="none" stroke="black" points="831.107,-14.5001 821.107,-18 831.107,-21.5001 831.107,-14.5001"/>
</g>
<!-- \\miiCard\\Consumers\\Consumers\\MiiCardOAuthServiceBase -->
<g id="node21" class="node"><title>\\miiCard\\Consumers\\Consumers\\MiiCardOAuthServiceBase</title>
<ellipse fill="none" stroke="black" cx="771" cy="-790" rx="230.959" ry="18"/>
<text text-anchor="middle" x="771" y="-786.3" font-family="Times New Roman,serif" font-size="14.00" fill="gray">\miiCard\Consumers\Consumers\MiiCardOAuthServiceBase</text>
</g>
<!-- \\miiCard\\Consumers\\Consumers\\OAuthSignedRequestMaker -->
<g id="node23" class="node"><title>\\miiCard\\Consumers\\Consumers\\OAuthSignedRequestMaker</title>
<ellipse fill="none" stroke="black" cx="234" cy="-817" rx="233.958" ry="18"/>
<text text-anchor="middle" x="234" y="-813.3" font-family="Times New Roman,serif" font-size="14.00" fill="gray">\miiCard\Consumers\Consumers\OAuthSignedRequestMaker</text>
</g>
<!-- \\miiCard\\Consumers\\Consumers\\MiiCardOAuthServiceBase&#45;&gt;\\miiCard\\Consumers\\Consumers\\OAuthSignedRequestMaker -->
<g id="edge8" class="edge"><title>\\miiCard\\Consumers\\Consumers\\MiiCardOAuthServiceBase&#45;&gt;\\miiCard\\Consumers\\Consumers\\OAuthSignedRequestMaker</title>
<path fill="none" stroke="black" d="M576.853,-799.748C532.47,-801.987 485.121,-804.377 440.247,-806.642"/>
<polygon fill="none" stroke="black" points="439.921,-803.154 430.11,-807.153 440.274,-810.145 439.921,-803.154"/>
</g>
<!-- \\miiCard\\Consumers\\Consumers\\MiiCardOAuthClaimsService -->
<g id="node24" class="node"><title>\\miiCard\\Consumers\\Consumers\\MiiCardOAuthClaimsService</title>
<ellipse fill="none" stroke="black" cx="1312" cy="-790" rx="237.758" ry="18"/>
<text text-anchor="middle" x="1312" y="-786.3" font-family="Times New Roman,serif" font-size="14.00" fill="gray">\miiCard\Consumers\Consumers\MiiCardOAuthClaimsService</text>
</g>
<!-- \\miiCard\\Consumers\\Consumers\\MiiCardOAuthClaimsService&#45;&gt;\\miiCard\\Consumers\\Consumers\\MiiCardOAuthServiceBase -->
<g id="edge10" class="edge"><title>\\miiCard\\Consumers\\Consumers\\MiiCardOAuthClaimsService&#45;&gt;\\miiCard\\Consumers\\Consumers\\MiiCardOAuthServiceBase</title>
<path fill="none" stroke="black" d="M1073.8,-790C1053.29,-790 1032.53,-790 1012,-790"/>
<polygon fill="none" stroke="black" points="1011.94,-786.5 1001.94,-790 1011.94,-793.5 1011.94,-786.5"/>
</g>
<!-- \\miiCard\\Consumers\\Consumers\\MiiCard -->
<g id="node26" class="node"><title>\\miiCard\\Consumers\\Consumers\\MiiCard</title>
<ellipse fill="none" stroke="black" cx="771" cy="-844" rx="161.671" ry="18"/>
<text text-anchor="middle" x="771" y="-840.3" font-family="Times New Roman,serif" font-size="14.00" fill="gray">\miiCard\Consumers\Consumers\MiiCard</text>
</g>
<!-- \\miiCard\\Consumers\\Consumers\\MiiCard&#45;&gt;\\miiCard\\Consumers\\Consumers\\OAuthSignedRequestMaker -->
<g id="edge12" class="edge"><title>\\miiCard\\Consumers\\Consumers\\MiiCard&#45;&gt;\\miiCard\\Consumers\\Consumers\\OAuthSignedRequestMaker</title>
<path fill="none" stroke="black" d="M623.455,-836.604C566.897,-833.75 501.201,-830.434 440.104,-827.351"/>
<polygon fill="none" stroke="black" points="440.109,-823.847 429.945,-826.838 439.756,-830.838 440.109,-823.847"/>
</g>
<!-- \\miiCard\\Consumers\\Model\\Identity -->
<g id="node28" class="node"><title>\\miiCard\\Consumers\\Model\\Identity</title>
<ellipse fill="none" stroke="black" cx="1312" cy="-1060" rx="141.875" ry="18"/>
<text text-anchor="middle" x="1312" y="-1056.3" font-family="Times New Roman,serif" font-size="14.00" fill="gray">\miiCard\Consumers\Model\Identity</text>
</g>
<!-- \\miiCard\\Consumers\\Model\\Claim -->
<g id="node30" class="node"><title>\\miiCard\\Consumers\\Model\\Claim</title>
<ellipse fill="none" stroke="black" cx="771" cy="-952" rx="135.376" ry="18"/>
<text text-anchor="middle" x="771" y="-948.3" font-family="Times New Roman,serif" font-size="14.00" fill="gray">\miiCard\Consumers\Model\Claim</text>
</g>
<!-- \\miiCard\\Consumers\\Model\\Identity&#45;&gt;\\miiCard\\Consumers\\Model\\Claim -->
<g id="edge14" class="edge"><title>\\miiCard\\Consumers\\Model\\Identity&#45;&gt;\\miiCard\\Consumers\\Model\\Claim</title>
<path fill="none" stroke="black" d="M1193.55,-1050.11C1155.25,-1045.95 1112.65,-1040.34 1074,-1033 989.888,-1017.02 894.788,-989.986 834.165,-971.583"/>
<polygon fill="none" stroke="black" points="834.955,-968.165 824.368,-968.593 832.911,-974.86 834.955,-968.165"/>
</g>
<!-- \\miiCard\\Consumers\\Model\\EmailAddress -->
<g id="node31" class="node"><title>\\miiCard\\Consumers\\Model\\EmailAddress</title>
<ellipse fill="none" stroke="black" cx="1312" cy="-1006" rx="165.171" ry="18"/>
<text text-anchor="middle" x="1312" y="-1002.3" font-family="Times New Roman,serif" font-size="14.00" fill="gray">\miiCard\Consumers\Model\EmailAddress</text>
</g>
<!-- \\miiCard\\Consumers\\Model\\EmailAddress&#45;&gt;\\miiCard\\Consumers\\Model\\Claim -->
<g id="edge16" class="edge"><title>\\miiCard\\Consumers\\Model\\EmailAddress&#45;&gt;\\miiCard\\Consumers\\Model\\Claim</title>
<path fill="none" stroke="black" d="M1189.7,-993.848C1100.03,-984.864 978.579,-972.696 889.756,-963.797"/>
<polygon fill="none" stroke="black" points="889.934,-960.298 879.635,-962.784 889.237,-967.263 889.934,-960.298"/>
</g>
<!-- \\miiCard\\Consumers\\Model\\PhoneNumber -->
<g id="node33" class="node"><title>\\miiCard\\Consumers\\Model\\PhoneNumber</title>
<ellipse fill="none" stroke="black" cx="1312" cy="-952" rx="166.271" ry="18"/>
<text text-anchor="middle" x="1312" y="-948.3" font-family="Times New Roman,serif" font-size="14.00" fill="gray">\miiCard\Consumers\Model\PhoneNumber</text>
</g>
<!-- \\miiCard\\Consumers\\Model\\PhoneNumber&#45;&gt;\\miiCard\\Consumers\\Model\\Claim -->
<g id="edge18" class="edge"><title>\\miiCard\\Consumers\\Model\\PhoneNumber&#45;&gt;\\miiCard\\Consumers\\Model\\Claim</title>
<path fill="none" stroke="black" d="M1145.25,-952C1072.27,-952 987.303,-952 916.89,-952"/>
<polygon fill="none" stroke="black" points="916.61,-948.5 906.61,-952 916.61,-955.5 916.61,-948.5"/>
</g>
<!-- \\miiCard\\Consumers\\Model\\PostalAddress -->
<g id="node35" class="node"><title>\\miiCard\\Consumers\\Model\\PostalAddress</title>
<ellipse fill="none" stroke="black" cx="1312" cy="-898" rx="167.07" ry="18"/>
<text text-anchor="middle" x="1312" y="-894.3" font-family="Times New Roman,serif" font-size="14.00" fill="gray">\miiCard\Consumers\Model\PostalAddress</text>
</g>
<!-- \\miiCard\\Consumers\\Model\\PostalAddress&#45;&gt;\\miiCard\\Consumers\\Model\\Claim -->
<g id="edge20" class="edge"><title>\\miiCard\\Consumers\\Model\\PostalAddress&#45;&gt;\\miiCard\\Consumers\\Model\\Claim</title>
<path fill="none" stroke="black" d="M1189.03,-910.22C1099.47,-919.192 978.497,-931.312 889.909,-940.187"/>
<polygon fill="none" stroke="black" points="889.416,-936.719 879.815,-941.199 890.114,-943.684 889.416,-936.719"/>
</g>
<!-- \\miiCard\\Consumers\\Model\\WebProperty -->
<g id="node37" class="node"><title>\\miiCard\\Consumers\\Model\\WebProperty</title>
<ellipse fill="none" stroke="black" cx="1312" cy="-844" rx="163.271" ry="18"/>
<text text-anchor="middle" x="1312" y="-840.3" font-family="Times New Roman,serif" font-size="14.00" fill="gray">\miiCard\Consumers\Model\WebProperty</text>
</g>
<!-- \\miiCard\\Consumers\\Model\\WebProperty&#45;&gt;\\miiCard\\Consumers\\Model\\Claim -->
<g id="edge22" class="edge"><title>\\miiCard\\Consumers\\Model\\WebProperty&#45;&gt;\\miiCard\\Consumers\\Model\\Claim</title>
<path fill="none" stroke="black" d="M1182.86,-855.078C1147.44,-859.094 1109.09,-864.334 1074,-871 989.888,-886.979 894.788,-914.014 834.165,-932.417"/>
<polygon fill="none" stroke="black" points="832.911,-929.14 824.368,-935.407 834.955,-935.835 832.911,-929.14"/>
</g>
</g>
</svg>
