<?xml version="1.0" encoding="UTF-8" standalone="no"?>
<!DOCTYPE svg PUBLIC "-//W3C//DTD SVG 1.1//EN"
 "http://www.w3.org/Graphics/SVG/1.1/DTD/svg11.dtd">
<!-- Generated by graphviz version 2.28.0 (20110507.0327)
 -->
<!-- Title: G Pages: 1 -->
<svg width="840pt" height="1482pt"
 viewBox="0.00 0.00 840.00 1482.00" xmlns="http://www.w3.org/2000/svg" xmlns:xlink="http://www.w3.org/1999/xlink">
<g id="graph1" class="graph" transform="scale(1 1) rotate(0) translate(4 1478)">
<title>G</title>
<polygon fill="white" stroke="white" points="-4,5 -4,-1478 837,-1478 837,5 -4,5"/>
<g id="graph2" class="cluster"><title>cluster_global</title>
<polyline fill="none" stroke="gray" points="20,-98 812,-98 "/>
<path fill="none" stroke="gray" d="M812,-98C818,-98 824,-104 824,-110"/>
<polyline fill="none" stroke="gray" points="824,-110 824,-1454 "/>
<path fill="none" stroke="gray" d="M824,-1454C824,-1460 818,-1466 812,-1466"/>
<polyline fill="none" stroke="gray" points="812,-1466 20,-1466 "/>
<path fill="none" stroke="gray" d="M20,-1466C14,-1466 8,-1460 8,-1454"/>
<polyline fill="none" stroke="gray" points="8,-1454 8,-110 "/>
<path fill="none" stroke="gray" d="M8,-110C8,-104 14,-98 20,-98"/>
<text text-anchor="middle" x="416" y="-1453.2" font-family="Times New Roman,serif" font-size="11.00" fill="gray">global</text>
</g>
<!-- \\MiiCardServiceUrls -->
<g id="node2" class="node"><title>\\MiiCardServiceUrls</title>
<a xlink:href="miiCard.Consumers.miiCard.Consumers.html" xlink:title="MiiCardServiceUrls" target="_parent">
<polygon fill="none" stroke="black" points="775,-1438 637,-1438 637,-1402 775,-1402 775,-1438"/>
<text text-anchor="middle" x="706" y="-1417.2" font-family="Courier,monospace" font-size="11.00">MiiCardServiceUrls</text>
</a>
</g>
<!-- \\OAuthSignedRequestMaker -->
<g id="node3" class="node"><title>\\OAuthSignedRequestMaker</title>
<a xlink:href="miiCard.Consumers.miiCard.Consumers.html" xlink:title="«abstract»&lt;br/&gt;OAuthSignedRequestMaker" target="_parent">
<polygon fill="none" stroke="black" points="189.5,-1357 16.5,-1357 16.5,-1321 189.5,-1321 189.5,-1357"/>
<text text-anchor="start" x="69" y="-1342.7" font-family="Courier,monospace" font-size="11.00">«abstract»</text>
<text text-anchor="start" x="25" y="-1331.7" font-family="Courier,monospace" font-size="11.00">OAuthSignedRequestMaker</text>
</a>
</g>
<!-- \\MiiCardException -->
<g id="node4" class="node"><title>\\MiiCardException</title>
<a xlink:href="miiCard.Consumers.miiCard.Consumers.html" xlink:title="MiiCardException" target="_parent">
<polygon fill="none" stroke="black" points="768.5,-412 643.5,-412 643.5,-376 768.5,-376 768.5,-412"/>
<text text-anchor="middle" x="706" y="-391.2" font-family="Courier,monospace" font-size="11.00">MiiCardException</text>
</a>
</g>
<!-- \\Exception -->
<g id="node33" class="node"><title>\\Exception</title>
<ellipse fill="none" stroke="black" cx="393" cy="-72" rx="50.0912" ry="18"/>
<text text-anchor="middle" x="393" y="-68.3" font-family="Times New Roman,serif" font-size="14.00" fill="gray">\Exception</text>
</g>
<!-- \\MiiCardException&#45;&gt;\\Exception -->
<g id="edge3" class="edge"><title>\\MiiCardException&#45;&gt;\\Exception</title>
<path fill="none" stroke="black" d="M643.279,-390.325C626.065,-386.461 608.639,-379.45 596,-367 506.606,-278.941 616.64,-178.638 524,-94 504.84,-76.4948 477.152,-70.18 452.248,-68.577"/>
<polygon fill="none" stroke="black" points="452.277,-65.0754 442.143,-68.1658 451.992,-72.0696 452.277,-65.0754"/>
</g>
<!-- \\MiiCardOAuthServiceBase -->
<g id="node5" class="node"><title>\\MiiCardOAuthServiceBase</title>
<a xlink:href="miiCard.Consumers.miiCard.Consumers.html" xlink:title="«abstract»&lt;br/&gt;MiiCardOAuthServiceBase" target="_parent">
<polygon fill="none" stroke="black" points="479.5,-1384 306.5,-1384 306.5,-1348 479.5,-1348 479.5,-1384"/>
<text text-anchor="start" x="359" y="-1369.7" font-family="Courier,monospace" font-size="11.00">«abstract»</text>
<text text-anchor="start" x="315" y="-1358.7" font-family="Courier,monospace" font-size="11.00">MiiCardOAuthServiceBase</text>
</a>
</g>
<!-- \\MiiCardOAuthServiceBase&#45;&gt;\\OAuthSignedRequestMaker -->
<g id="edge5" class="edge"><title>\\MiiCardOAuthServiceBase&#45;&gt;\\OAuthSignedRequestMaker</title>
<path fill="none" stroke="black" d="M306.37,-1357.97C272.868,-1354.83 234.291,-1351.21 199.862,-1347.99"/>
<polygon fill="none" stroke="black" points="200.08,-1344.49 189.797,-1347.04 199.427,-1351.46 200.08,-1344.49"/>
</g>
<!-- \\MiiCardOAuthClaimsService -->
<g id="node6" class="node"><title>\\MiiCardOAuthClaimsService</title>
<a xlink:href="miiCard.Consumers.miiCard.Consumers.html" xlink:title="MiiCardOAuthClaimsService" target="_parent">
<polygon fill="none" stroke="black" points="798.5,-1384 613.5,-1384 613.5,-1348 798.5,-1348 798.5,-1384"/>
<text text-anchor="middle" x="706" y="-1363.2" font-family="Courier,monospace" font-size="11.00">MiiCardOAuthClaimsService</text>
</a>
</g>
<!-- \\MiiCardOAuthClaimsService&#45;&gt;\\MiiCardOAuthServiceBase -->
<g id="edge7" class="edge"><title>\\MiiCardOAuthClaimsService&#45;&gt;\\MiiCardOAuthServiceBase</title>
<path fill="none" stroke="black" d="M613.372,-1366C574.473,-1366 529.119,-1366 489.779,-1366"/>
<polygon fill="none" stroke="black" points="489.651,-1362.5 479.651,-1366 489.651,-1369.5 489.651,-1362.5"/>
</g>
<!-- \\MiiCard -->
<g id="node7" class="node"><title>\\MiiCard</title>
<a xlink:href="miiCard.Consumers.miiCard.Consumers.html" xlink:title="MiiCard" target="_parent">
<polygon fill="none" stroke="black" points="425,-1330 361,-1330 361,-1294 425,-1294 425,-1330"/>
<text text-anchor="middle" x="393" y="-1309.2" font-family="Courier,monospace" font-size="11.00">MiiCard</text>
</a>
</g>
<!-- \\MiiCard&#45;&gt;\\OAuthSignedRequestMaker -->
<g id="edge9" class="edge"><title>\\MiiCard&#45;&gt;\\OAuthSignedRequestMaker</title>
<path fill="none" stroke="black" d="M360.905,-1314.92C322.634,-1318.5 255.849,-1324.76 199.964,-1330"/>
<polygon fill="none" stroke="black" points="199.295,-1326.55 189.666,-1330.97 199.949,-1333.52 199.295,-1326.55"/>
</g>
<!-- \\MiiApiCallStatus -->
<g id="node8" class="node"><title>\\MiiApiCallStatus</title>
<a xlink:href="miiCard.Consumers.miiCard.Model.html" xlink:title="MiiApiCallStatus" target="_parent">
<polygon fill="none" stroke="black" points="768.5,-1276 643.5,-1276 643.5,-1240 768.5,-1240 768.5,-1276"/>
<text text-anchor="middle" x="706" y="-1255.2" font-family="Courier,monospace" font-size="11.00">MiiApiCallStatus</text>
</a>
</g>
<!-- \\MiiApiErrorCode -->
<g id="node9" class="node"><title>\\MiiApiErrorCode</title>
<a xlink:href="miiCard.Consumers.miiCard.Model.html" xlink:title="MiiApiErrorCode" target="_parent">
<polygon fill="none" stroke="black" points="765,-1222 647,-1222 647,-1186 765,-1186 765,-1222"/>
<text text-anchor="middle" x="706" y="-1201.2" font-family="Courier,monospace" font-size="11.00">MiiApiErrorCode</text>
</a>
</g>
<!-- \\WebPropertyType -->
<g id="node10" class="node"><title>\\WebPropertyType</title>
<a xlink:href="miiCard.Consumers.miiCard.Model.html" xlink:title="WebPropertyType" target="_parent">
<polygon fill="none" stroke="black" points="765,-1168 647,-1168 647,-1132 765,-1132 765,-1168"/>
<text text-anchor="middle" x="706" y="-1147.2" font-family="Courier,monospace" font-size="11.00">WebPropertyType</text>
</a>
</g>
<!-- \\Claim -->
<g id="node11" class="node"><title>\\Claim</title>
<a xlink:href="miiCard.Consumers.miiCard.Model.html" xlink:title="«abstract»&lt;br/&gt;Claim" target="_parent">
<polygon fill="none" stroke="black" points="435.5,-1060 350.5,-1060 350.5,-1024 435.5,-1024 435.5,-1060"/>
<text text-anchor="start" x="359" y="-1045.7" font-family="Courier,monospace" font-size="11.00">«abstract»</text>
<text text-anchor="start" x="376" y="-1034.7" font-family="Courier,monospace" font-size="11.00">Claim</text>
</a>
</g>
<!-- \\Identity -->
<g id="node12" class="node"><title>\\Identity</title>
<a xlink:href="miiCard.Consumers.miiCard.Model.html" xlink:title="Identity" target="_parent">
<polygon fill="none" stroke="black" points="741.5,-1330 670.5,-1330 670.5,-1294 741.5,-1294 741.5,-1330"/>
<text text-anchor="middle" x="706" y="-1309.2" font-family="Courier,monospace" font-size="11.00">Identity</text>
</a>
</g>
<!-- \\Identity&#45;&gt;\\Claim -->
<g id="edge11" class="edge"><title>\\Identity&#45;&gt;\\Claim</title>
<path fill="none" stroke="black" d="M670.41,-1309.05C647.822,-1305.82 618.463,-1299.08 596,-1285 506.519,-1228.89 437.383,-1119.75 408.597,-1069.07"/>
<polygon fill="none" stroke="black" points="411.634,-1067.33 403.696,-1060.31 405.526,-1070.75 411.634,-1067.33"/>
</g>
<!-- \\EmailAddress -->
<g id="node13" class="node"><title>\\EmailAddress</title>
<a xlink:href="miiCard.Consumers.miiCard.Model.html" xlink:title="EmailAddress" target="_parent">
<polygon fill="none" stroke="black" points="755,-1114 657,-1114 657,-1078 755,-1078 755,-1114"/>
<text text-anchor="middle" x="706" y="-1093.2" font-family="Courier,monospace" font-size="11.00">EmailAddress</text>
</a>
</g>
<!-- \\EmailAddress&#45;&gt;\\Claim -->
<g id="edge13" class="edge"><title>\\EmailAddress&#45;&gt;\\Claim</title>
<path fill="none" stroke="black" d="M656.747,-1087.62C599.61,-1077.7 504.807,-1061.24 446.057,-1051.04"/>
<polygon fill="none" stroke="black" points="446.332,-1047.53 435.88,-1049.27 445.134,-1054.43 446.332,-1047.53"/>
</g>
<!-- \\PhoneNumber -->
<g id="node14" class="node"><title>\\PhoneNumber</title>
<a xlink:href="miiCard.Consumers.miiCard.Model.html" xlink:title="PhoneNumber" target="_parent">
<polygon fill="none" stroke="black" points="751.5,-1060 660.5,-1060 660.5,-1024 751.5,-1024 751.5,-1060"/>
<text text-anchor="middle" x="706" y="-1039.2" font-family="Courier,monospace" font-size="11.00">PhoneNumber</text>
</a>
</g>
<!-- \\PhoneNumber&#45;&gt;\\Claim -->
<g id="edge15" class="edge"><title>\\PhoneNumber&#45;&gt;\\Claim</title>
<path fill="none" stroke="black" d="M660.441,-1042C603.76,-1042 506.042,-1042 446.011,-1042"/>
<polygon fill="none" stroke="black" points="445.986,-1038.5 435.986,-1042 445.986,-1045.5 445.986,-1038.5"/>
</g>
<!-- \\PostalAddress -->
<g id="node15" class="node"><title>\\PostalAddress</title>
<a xlink:href="miiCard.Consumers.miiCard.Model.html" xlink:title="PostalAddress" target="_parent">
<polygon fill="none" stroke="black" points="758,-1006 654,-1006 654,-970 758,-970 758,-1006"/>
<text text-anchor="middle" x="706" y="-985.2" font-family="Courier,monospace" font-size="11.00">PostalAddress</text>
</a>
</g>
<!-- \\PostalAddress&#45;&gt;\\Claim -->
<g id="edge17" class="edge"><title>\\PostalAddress&#45;&gt;\\Claim</title>
<path fill="none" stroke="black" d="M653.993,-996.857C596.445,-1006.85 503.361,-1023.01 445.579,-1033.04"/>
<polygon fill="none" stroke="black" points="444.822,-1029.62 435.569,-1034.78 446.02,-1036.52 444.822,-1029.62"/>
</g>
<!-- \\WebProperty -->
<g id="node16" class="node"><title>\\WebProperty</title>
<a xlink:href="miiCard.Consumers.miiCard.Model.html" xlink:title="WebProperty" target="_parent">
<polygon fill="none" stroke="black" points="751.5,-952 660.5,-952 660.5,-916 751.5,-916 751.5,-952"/>
<text text-anchor="middle" x="706" y="-931.2" font-family="Courier,monospace" font-size="11.00">WebProperty</text>
</a>
</g>
<!-- \\WebProperty&#45;&gt;\\Claim -->
<g id="edge19" class="edge"><title>\\WebProperty&#45;&gt;\\Claim</title>
<path fill="none" stroke="black" d="M660.325,-943.592C640.451,-948.236 616.873,-954.266 596,-961 543.069,-978.077 484.223,-1002.3 443.764,-1019.8"/>
<polygon fill="none" stroke="black" points="442.175,-1016.67 434.4,-1023.87 444.967,-1023.09 442.175,-1016.67"/>
</g>
<!-- \\MiiUserProfile -->
<g id="node17" class="node"><title>\\MiiUserProfile</title>
<a xlink:href="miiCard.Consumers.miiCard.Model.html" xlink:title="MiiUserProfile" target="_parent">
<polygon fill="none" stroke="black" points="761.5,-844 650.5,-844 650.5,-808 761.5,-808 761.5,-844"/>
<text text-anchor="middle" x="706" y="-823.2" font-family="Courier,monospace" font-size="11.00">MiiUserProfile</text>
</a>
</g>
<!-- \\MiiApiResponse -->
<g id="node18" class="node"><title>\\MiiApiResponse</title>
<a xlink:href="miiCard.Consumers.miiCard.Model.html" xlink:title="MiiApiResponse" target="_parent">
<polygon fill="none" stroke="black" points="761.5,-790 650.5,-790 650.5,-754 761.5,-754 761.5,-790"/>
<text text-anchor="middle" x="706" y="-769.2" font-family="Courier,monospace" font-size="11.00">MiiApiResponse</text>
</a>
</g>
<!-- \\Util -->
<g id="node19" class="node"><title>\\Util</title>
<a xlink:href="miiCard.Consumers.miiCard.Model.html" xlink:title="Util" target="_parent">
<polygon fill="none" stroke="black" points="733,-736 679,-736 679,-700 733,-700 733,-736"/>
<text text-anchor="middle" x="706" y="-715.2" font-family="Courier,monospace" font-size="11.00">Util</text>
</a>
</g>
<!-- \\OAuthException -->
<g id="node20" class="node"><title>\\OAuthException</title>
<a xlink:href="miiCard.Consumers.oauth.OAuth.html" xlink:title="OAuthException" target="_parent">
<polygon fill="none" stroke="black" points="761.5,-466 650.5,-466 650.5,-430 761.5,-430 761.5,-466"/>
<text text-anchor="middle" x="706" y="-445.2" font-family="Courier,monospace" font-size="11.00">OAuthException</text>
</a>
</g>
<!-- \\OAuthException&#45;&gt;\\Exception -->
<g id="edge21" class="edge"><title>\\OAuthException&#45;&gt;\\Exception</title>
<path fill="none" stroke="black" d="M650.315,-446.107C630.791,-442.702 610.149,-435.523 596,-421 492.154,-314.408 631.778,-196.614 524,-94 505.058,-75.9657 477.128,-69.6471 452.007,-68.1788"/>
<polygon fill="none" stroke="black" points="451.928,-64.6741 441.814,-67.8301 451.689,-71.67 451.928,-64.6741"/>
</g>
<!-- \\OAuthConsumer -->
<g id="node21" class="node"><title>\\OAuthConsumer</title>
<a xlink:href="miiCard.Consumers.oauth.OAuth.html" xlink:title="OAuthConsumer" target="_parent">
<polygon fill="none" stroke="black" points="758,-628 654,-628 654,-592 758,-592 758,-628"/>
<text text-anchor="middle" x="706" y="-607.2" font-family="Courier,monospace" font-size="11.00">OAuthConsumer</text>
</a>
</g>
<!-- \\OAuthToken -->
<g id="node22" class="node"><title>\\OAuthToken</title>
<a xlink:href="miiCard.Consumers.oauth.OAuth.html" xlink:title="OAuthToken" target="_parent">
<polygon fill="none" stroke="black" points="748,-574 664,-574 664,-538 748,-538 748,-574"/>
<text text-anchor="middle" x="706" y="-553.2" font-family="Courier,monospace" font-size="11.00">OAuthToken</text>
</a>
</g>
<!-- \\OAuthSignatureMethod -->
<g id="node23" class="node"><title>\\OAuthSignatureMethod</title>
<a xlink:href="miiCard.Consumers.oauth.OAuth.html" xlink:title="«abstract»&lt;br/&gt;OAuthSignatureMethod" target="_parent">
<polygon fill="none" stroke="black" points="469.5,-682 316.5,-682 316.5,-646 469.5,-646 469.5,-682"/>
<text text-anchor="start" x="359" y="-667.7" font-family="Courier,monospace" font-size="11.00">«abstract»</text>
<text text-anchor="start" x="325" y="-656.7" font-family="Courier,monospace" font-size="11.00">OAuthSignatureMethod</text>
</a>
</g>
<!-- \\OAuthSignatureMethod_HMAC_SHA1 -->
<g id="node24" class="node"><title>\\OAuthSignatureMethod_HMAC_SHA1</title>
<a xlink:href="miiCard.Consumers.oauth.OAuth.html" xlink:title="OAuthSignatureMethod_HMAC_SHA1" target="_parent">
<polygon fill="none" stroke="black" points="815.5,-682 596.5,-682 596.5,-646 815.5,-646 815.5,-682"/>
<text text-anchor="middle" x="706" y="-661.2" font-family="Courier,monospace" font-size="11.00">OAuthSignatureMethod_HMAC_SHA1</text>
</a>
</g>
<!-- \\OAuthSignatureMethod_HMAC_SHA1&#45;&gt;\\OAuthSignatureMethod -->
<g id="edge23" class="edge"><title>\\OAuthSignatureMethod_HMAC_SHA1&#45;&gt;\\OAuthSignatureMethod</title>
<path fill="none" stroke="black" d="M596.227,-664C558.284,-664 516.249,-664 480.376,-664"/>
<polygon fill="none" stroke="black" points="479.942,-660.5 469.942,-664 479.942,-667.5 479.942,-660.5"/>
</g>
<!-- \\OAuthSignatureMethod_PLAINTEXT -->
<g id="node25" class="node"><title>\\OAuthSignatureMethod_PLAINTEXT</title>
<a xlink:href="miiCard.Consumers.oauth.OAuth.html" xlink:title="OAuthSignatureMethod_PLAINTEXT" target="_parent">
<polygon fill="none" stroke="black" points="815.5,-520 596.5,-520 596.5,-484 815.5,-484 815.5,-520"/>
<text text-anchor="middle" x="706" y="-499.2" font-family="Courier,monospace" font-size="11.00">OAuthSignatureMethod_PLAINTEXT</text>
</a>
</g>
<!-- \\OAuthSignatureMethod_PLAINTEXT&#45;&gt;\\OAuthSignatureMethod -->
<g id="edge25" class="edge"><title>\\OAuthSignatureMethod_PLAINTEXT&#45;&gt;\\OAuthSignatureMethod</title>
<path fill="none" stroke="black" d="M610.976,-520.125C605.711,-522.702 600.67,-525.644 596,-529 547.643,-563.754 573.629,-609.088 524,-642 510.933,-650.665 495.552,-656.269 480.031,-659.828"/>
<polygon fill="none" stroke="black" points="478.944,-656.477 469.833,-661.884 480.328,-663.339 478.944,-656.477"/>
</g>
<!-- \\OAuthSignatureMethod_RSA_SHA1 -->
<g id="node26" class="node"><title>\\OAuthSignatureMethod_RSA_SHA1</title>
<a xlink:href="miiCard.Consumers.oauth.OAuth.html" xlink:title="«abstract»&lt;br/&gt;OAuthSignatureMethod_RSA_SHA1" target="_parent">
<polygon fill="none" stroke="black" points="812.5,-898 599.5,-898 599.5,-862 812.5,-862 812.5,-898"/>
<text text-anchor="start" x="672" y="-883.7" font-family="Courier,monospace" font-size="11.00">«abstract»</text>
<text text-anchor="start" x="608" y="-872.7" font-family="Courier,monospace" font-size="11.00">OAuthSignatureMethod_RSA_SHA1</text>
</a>
</g>
<!-- \\OAuthSignatureMethod_RSA_SHA1&#45;&gt;\\OAuthSignatureMethod -->
<g id="edge27" class="edge"><title>\\OAuthSignatureMethod_RSA_SHA1&#45;&gt;\\OAuthSignatureMethod</title>
<path fill="none" stroke="black" d="M615.807,-861.98C608.939,-859.372 602.253,-856.396 596,-853 518.018,-810.652 447.375,-730.977 414.101,-689.918"/>
<polygon fill="none" stroke="black" points="416.749,-687.625 407.766,-682.007 411.285,-692 416.749,-687.625"/>
</g>
<!-- \\OAuthRequest -->
<g id="node27" class="node"><title>\\OAuthRequest</title>
<a xlink:href="miiCard.Consumers.oauth.OAuth.html" xlink:title="OAuthRequest" target="_parent">
<polygon fill="none" stroke="black" points="755,-358 657,-358 657,-322 755,-322 755,-358"/>
<text text-anchor="middle" x="706" y="-337.2" font-family="Courier,monospace" font-size="11.00">OAuthRequest</text>
</a>
</g>
<!-- \\OAuthServer -->
<g id="node28" class="node"><title>\\OAuthServer</title>
<a xlink:href="miiCard.Consumers.oauth.OAuth.html" xlink:title="OAuthServer" target="_parent">
<polygon fill="none" stroke="black" points="751.5,-304 660.5,-304 660.5,-268 751.5,-268 751.5,-304"/>
<text text-anchor="middle" x="706" y="-283.2" font-family="Courier,monospace" font-size="11.00">OAuthServer</text>
</a>
</g>
<!-- \\OAuthDataStore -->
<g id="node29" class="node"><title>\\OAuthDataStore</title>
<a xlink:href="miiCard.Consumers.oauth.OAuth.html" xlink:title="OAuthDataStore" target="_parent">
<polygon fill="none" stroke="black" points="761.5,-250 650.5,-250 650.5,-214 761.5,-214 761.5,-250"/>
<text text-anchor="middle" x="706" y="-229.2" font-family="Courier,monospace" font-size="11.00">OAuthDataStore</text>
</a>
</g>
<!-- \\OAuthUtil -->
<g id="node30" class="node"><title>\\OAuthUtil</title>
<a xlink:href="miiCard.Consumers.oauth.OAuth.html" xlink:title="OAuthUtil" target="_parent">
<polygon fill="none" stroke="black" points="744.5,-196 667.5,-196 667.5,-160 744.5,-160 744.5,-196"/>
<text text-anchor="middle" x="706" y="-175.2" font-family="Courier,monospace" font-size="11.00">OAuthUtil</text>
</a>
</g>
<!-- \\MiiUserProfileTest -->
<g id="node31" class="node"><title>\\MiiUserProfileTest</title>
<a xlink:href="miiCard.Consumers.test.miiCard.Consumers.Test.html" xlink:title="MiiUserProfileTest" target="_parent">
<polygon fill="none" stroke="black" points="775,-142 637,-142 637,-106 775,-106 775,-142"/>
<text text-anchor="middle" x="706" y="-121.2" font-family="Courier,monospace" font-size="11.00">MiiUserProfileTest</text>
</a>
</g>
<!-- \\PHPUnit_Framework_TestCase -->
<g id="node47" class="node"><title>\\PHPUnit_Framework_TestCase</title>
<ellipse fill="none" stroke="black" cx="393" cy="-18" rx="130.777" ry="18"/>
<text text-anchor="middle" x="393" y="-14.3" font-family="Times New Roman,serif" font-size="14.00" fill="gray">\PHPUnit_Framework_TestCase</text>
</g>
<!-- \\MiiUserProfileTest&#45;&gt;\\PHPUnit_Framework_TestCase -->
<g id="edge29" class="edge"><title>\\MiiUserProfileTest&#45;&gt;\\PHPUnit_Framework_TestCase</title>
<path fill="none" stroke="black" d="M669.447,-105.857C633.548,-88.1717 576.111,-61.5868 524,-45 511.485,-41.0165 498.101,-37.4687 484.855,-34.36"/>
<polygon fill="none" stroke="black" points="485.297,-30.8711 474.77,-32.0684 483.746,-37.6971 485.297,-30.8711"/>
</g>
</g>
</svg>
